<svg xmlns="http://www.w3.org/2000/svg" viewBox="0 0 504.64 391.108"><g data-name="Layer 2"><g data-name="Layer 1"><path fill="#d5efc8" d="M333.84136,389.50755c16.25-5.08,30.83-10.27,48.37-20.12,18.09-10.16,98.45-58.51,108.9-142.19a159.61541,159.61541,0,0,0-6.66-68.16c-3.23-9.47-9.93-28.49-26.84-47.3-20.7-23.04-44.32-31.97-58.17-37.02-29.14-10.63-53.58-10.07-65.22-9.69-12.56.41-34.73,1.33-59.93,12.34-16.44,7.18-26.66,15.37-41.72,27.61-23.86,19.41-27,27.49-68.74,67.57-11.46,11-20.88,19.67-35.26,28.21-9.97,5.92-18.03,9.23-32.9,15.27-36.55,14.85-46.95657,17.85677-58.91657,26.21677-23.26,16.27-21.75343,34.01323-22.75343,37.83323a75.12694,75.12694,0,0,0-1.77,29.97c3.05,20.07,13.86,33.19,20.57,41.13a113.09822,113.09822,0,0,0,32.9,26.44,210.24676,210.24676,0,0,0,26.96,11.89Z"/><path fill="none" stroke="#bbec6c" stroke-miterlimit="10" d="M272.77852,70.70881c26.24641-11.46026,49.33564-12.42711,62.42676-12.85257,12.11573-.39376,37.57416-.975,67.935,10.09845,14.42589,5.26152,39.0266,14.5633,60.5907,38.5577,17.60787,19.59231,24.58686,39.40669,27.94924,49.26817a166.3156,166.3156,0,0,1,6.93628,70.99514c-10.879,87.16758-94.58691,137.52535-113.429,148.1105"/><path fill="#8795de" d="M155.67527,207.64361H294.25174a20.803,20.803,0,0,1,20.803,20.803v90.08882a0,0,0,0,1,0,0H134.87226a0,0,0,0,1,0,0V228.44662A20.803,20.803,0,0,1,155.67527,207.64361Z"/><rect width="57.298" height="57.298" x="315.055" y="253.05" fill="#a2aee6"/><path fill="#4f66d0" d="M315.05474 253.04961c.20624 4.77481.30286 9.54965.38284 14.32449.08234 4.77484.07477 9.54969.11658 14.32453-.03915 4.77481-.03515 9.54965-.11481 14.32449l-.13949 7.16226c-.08307 2.38742-.13175 4.77484-.24512 7.16223-.11337-2.38739-.162-4.77481-.24512-7.16223l-.13949-7.16226c-.07965-4.77484-.07565-9.54968-.11481-14.32449.04181-4.77484.03424-9.54969.11658-14.32453C314.75188 262.59926 314.8485 257.82442 315.05474 253.04961zM287.61 228.09969c-.943.52631-1.87149 1.06146-2.75458 1.669a31.17319 31.17319 0 00-2.6127 1.84222 33.853 33.853 0 00-4.64554 4.30511 22.63439 22.63439 0 00-3.428 5.26032l-.602 1.46252c-.18118.49536-.27716 1.01679-.42587 1.52625l-.22366.7684-.11676.78937c-.07062.52878-.154 1.06-.24619 1.59628a15.4741 15.4741 0 01.90247-6.434 18.72927 18.72927 0 013.38656-5.62576 25.1353 25.1353 0 014.95465-4.27213A24.63335 24.63335 0 01287.61 228.09969zM295.03448 263.07323c-.61341-.88879-1.23429-1.76233-1.92288-2.58377a31.1793 31.1793 0 00-2.08185-2.42609 33.85176 33.85176 0 00-4.72657-4.216 22.63229 22.63229 0 00-5.56185-2.91333l-1.51307-.46045c-.51031-.13336-1.03848-.17944-1.55975-.27911l-.78616-.14972-.79691-.04135c-.53308-.02011-1.06979-.05271-1.61242-.0936a15.474 15.474 0 016.49063.28784 18.72905 18.72905 0 015.92175 2.8374 25.13467 25.13467 0 014.723 4.52689A24.63324 24.63324 0 01295.03448 263.07323zM244.36524 250.285a24.63347 24.63347 0 015.7137-3.0766 25.1347 25.1347 0 016.34912-1.57748 18.7291 18.7291 0 016.54856.48446 15.47414 15.47414 0 015.77368 2.97913c-.49106-.23447-.97287-.47317-1.44531-.72092l-.71186-.36056-.75647-.2612c-.5018-.17285-.98288-.39563-1.49191-.53381l-1.54163-.35325a22.63347 22.63347 0 00-6.27411-.23956 33.85088 33.85088 0 00-6.19752 1.306 31.17877 31.17877 0 00-3.01286 1.06894C246.31263 249.3702 245.33949 249.81914 244.36524 250.285zM268.62832 276.5447a24.63367 24.63367 0 01-2.52051-5.97989 25.13635 25.13635 0 01-.96783-6.47016 18.72938 18.72938 0 011.1037-6.473 15.47362 15.47362 0 013.51364-5.4649c-.28.46658-.56339.92355-.85486 1.37036l-.42648.67444-.33182.72827c-.21967.48312-.48709.94089-.673 1.43451l-.49792 1.50113a22.63319 22.63319 0 00-.83389 6.22308 33.85323 33.85323 0 00.712 6.29349 31.18389 31.18389 0 00.7782 3.10071C267.90249 274.51928 268.257 275.53063 268.62832 276.5447zM198.13728 228.09969c-.943.52631-1.87149 1.06146-2.7546 1.669a31.17615 31.17615 0 00-2.61268 1.84222 33.85291 33.85291 0 00-4.64553 4.30511 22.63379 22.63379 0 00-3.428 5.26032l-.602 1.46252c-.18118.49536-.27716 1.01679-.42587 1.52625l-.22365.7684-.11679.78937c-.0706.52878-.154 1.06-.24619 1.59628a15.47428 15.47428 0 01.90249-6.434 18.72886 18.72886 0 013.38656-5.62576 25.13513 25.13513 0 014.95467-4.27213A24.633 24.633 0 01198.13728 228.09969zM205.56178 263.07323c-.61342-.88879-1.23427-1.76233-1.92289-2.58377a31.17269 31.17269 0 00-2.08184-2.42609 33.85217 33.85217 0 00-4.72655-4.216 22.633 22.633 0 00-5.56188-2.91333l-1.513-.46045c-.51033-.13336-1.0385-.17944-1.55977-.27911l-.78616-.14972-.79689-.04135c-.5331-.02011-1.06981-.05271-1.61243-.0936a15.4739 15.4739 0 016.49061.28784 18.7288 18.7288 0 015.92176 2.8374 25.135 25.135 0 014.723 4.52689A24.63252 24.63252 0 01205.56178 263.07323zM154.89254 250.285a24.63327 24.63327 0 015.7137-3.0766 25.13491 25.13491 0 016.34912-1.57748 18.72893 18.72893 0 016.54854.48446 15.47407 15.47407 0 015.7737 2.97913c-.49105-.23447-.97286-.47317-1.44532-.72092l-.71186-.36056-.75646-.2612c-.50178-.17285-.98288-.39563-1.49193-.53381l-1.54161-.35325a22.63346 22.63346 0 00-6.27411-.23956 33.85123 33.85123 0 00-6.19752 1.306 31.1805 31.1805 0 00-3.01285 1.06894C156.83994 249.3702 155.8668 249.81914 154.89254 250.285zM179.15563 276.5447a24.63252 24.63252 0 01-2.52052-5.97989 25.13636 25.13636 0 01-.96784-6.47016 18.72893 18.72893 0 011.10372-6.473 15.47369 15.47369 0 013.51361-5.4649c-.28.46658-.56335.92355-.85483 1.37036l-.42648.67444-.33182.72827c-.21966.48312-.48711.94089-.673 1.43451l-.498 1.50113a22.63394 22.63394 0 00-.83388 6.22308 33.85159 33.85159 0 00.712 6.29349 31.17555 31.17555 0 00.77819 3.10071C178.42979 274.51928 178.78434 275.53063 179.15563 276.5447z"/><path fill="#a2aee6" d="M133.27064,253.0496H170.188a0,0,0,0,1,0,0v136.218a0,0,0,0,1,0,0H113.25037a0,0,0,0,1,0,0V273.06987A20.02028,20.02028,0,0,1,133.27064,253.0496Z"/><path fill="#c0d6f2" d="M210.54891,389.26755H170.188V253.0496h20.3406a20.02028,20.02028,0,0,1,20.02028,20.02027v29.90507l161.85191-1.10673-.048-48.81861h16.37659a20.02027,20.02027,0,0,1,20.02027,20.02027V389.26755Z"/><path fill="#e19974" d="M428.20779,151.33269V389.26755H482V151.33269a2.58119,2.58119,0,0,0-2.5812-2.58119H430.789A2.58119,2.58119,0,0,0,428.20779,151.33269Z"/><rect width="47.855" height="35.543" x="431.176" y="152.623" fill="#935b50" rx="2.581"/><rect width="47.855" height="35.543" x="431.176" y="192.038" fill="#935b50" rx="2.581"/><rect width="47.855" height="35.543" x="431.176" y="231.453" fill="#935b50" rx="2.581"/><rect width="47.855" height="35.543" x="431.176" y="270.868" fill="#935b50" rx="2.581"/><rect width="47.855" height="35.543" x="431.176" y="310.283" fill="#935b50" rx="2.581"/><rect width="47.855" height="35.543" x="431.176" y="349.698" fill="#935b50" rx="2.581"/><rect width="14.713" height="5.421" x="447.747" y="165.555" fill="#d6694b" rx="1"/><path fill="#d6694b" d="M462.46013,175.88028H447.74724a.64551.64551,0,1,1,0-1.291h14.71289a.64551.64551,0,1,1,0,1.291Z"/><rect width="14.713" height="1.291" x="447.747" y="371.663" fill="#d6694b"/><line x1="447.747" x2="462.46" y1="332.894" y2="332.894" fill="none" stroke="#173037" stroke-miterlimit="10" stroke-width="1.291"/><line x1="447.747" x2="462.46" y1="293.479" y2="293.479" fill="none" stroke="#173037" stroke-miterlimit="10" stroke-width="1.291"/><line x1="447.747" x2="462.46" y1="254.064" y2="254.064" fill="none" stroke="#173037" stroke-miterlimit="10" stroke-width="1.291"/><line x1="447.747" x2="462.46" y1="214.649" y2="214.649" fill="none" stroke="#173037" stroke-miterlimit="10" stroke-width="1.291"/><rect width="14.713" height="5.421" x="447.747" y="244.385" fill="#d6694b" rx="1"/><path fill="#d6694b" d="M462.46013,254.70987H447.74724a.64551.64551,0,1,1,0-1.291h14.71289a.64551.64551,0,1,1,0,1.291Z"/><rect width="14.713" height="5.421" x="447.747" y="283.8" fill="#d6694b" rx="1"/><path fill="#d6694b" d="M462.46013,294.12491H447.74724a.64551.64551,0,1,1,0-1.291h14.71289a.64551.64551,0,1,1,0,1.291Z"/><rect width="14.713" height="5.421" x="447.747" y="362.629" fill="#d6694b" rx="1"/><rect width="14.713" height="5.421" x="447.747" y="323.215" fill="#d6694b" rx="1"/><path fill="#d6694b" d="M462.46013,333.53946H447.74724a.64551.64551,0,1,1,0-1.291h14.71289a.64551.64551,0,1,1,0,1.291Z"/><rect width="14.713" height="5.421" x="447.747" y="204.97" fill="#d6694b" rx="1"/><path fill="#d6694b" d="M462.46013 215.29484H447.74724a.64551.64551 0 010-1.291h14.71289a.64551.64551 0 010 1.291zM169.64835 152.7065H35.11632V0h134.532zM39.8967 147.9269H164.868V4.7796H39.8967z"/><rect width="128.698" height="49.814" x="38.59" y="2.862" fill="#d6694b"/><rect width="143.967" height="7.155" x="30.399" y="152.749" fill="#935b50" rx="1.291"/><rect width="124.971" height="5.724" x="39.897" y="50.856" fill="#e19974"/><line x1="59.782" x2="102.28" y1="117.162" y2="76.353" fill="none" stroke="#e19974" stroke-miterlimit="10"/><line x1="59.782" x2="95.415" y1="92.633" y2="59.645" fill="none" stroke="#e19974" stroke-miterlimit="10"/><path fill="#935b50" d="M181.87989 6.45115L22.894 6.79036a2.1682 2.1682 0 01-2.17283-2.1682V2.16821A2.16821 2.16821 0 0122.88941 0H181.87526a2.16821 2.16821 0 012.16821 2.16821V4.28295A2.1682 2.1682 0 01181.87989 6.45115zM22.87394 14.97984L181.8598 16.114a2.16821 2.16821 0 002.18367-2.16815V10.52156a2.16821 2.16821 0 00-2.16821-2.1682H22.88941a2.16821 2.16821 0 00-2.16821 2.1682v2.29013A2.1682 2.1682 0 0022.87394 14.97984zM22.86756 23.69765l158.98586 1.60182a2.1682 2.1682 0 002.19005-2.16809V20.23129a2.1682 2.1682 0 00-2.15-2.16813l-158.98585-1.338a2.16821 2.16821 0 00-2.18646 2.16813v2.63631A2.16821 2.16821 0 0022.86756 23.69765zM22.923 33.28266l158.98586-2.46515a2.1682 2.1682 0 002.13459-2.16794v-.06493a2.1682 2.1682 0 00-2.15-2.16812l-158.98585-1.338A2.16821 2.16821 0 0020.7212 27.2466v3.86811A2.16821 2.16821 0 0022.923 33.28266zM22.90979 40.65263L181.89565 39.158a2.1682 2.1682 0 002.14782-2.1681v-2.268a2.1682 2.1682 0 00-2.19853-2.168L22.85909 34.7775a2.16822 2.16822 0 00-2.13789 2.168v1.539A2.16821 2.16821 0 0022.90979 40.65263zM22.88941 46.20053H181.87526a2.16821 2.16821 0 002.16821-2.1682V43.545a2.1682 2.1682 0 00-2.17484-2.16819l-158.98586.48676a2.16821 2.16821 0 00-2.16157 2.16819v.00059A2.16821 2.16821 0 0022.88941 46.20053z"/><path fill="#935b50" d="M177.56058 48.43289a.75.75 0 01-.74219-.64892l-.20606-1.47852a.75006.75006 0 011.48536-.21l.207 1.48633a.75032.75032 0 01-.64209.84424A.72186.72186 0 01177.56058 48.43289zM176.02835 138.3953a.7501.7501 0 01-.75-.748l-.001-.51709c0-.793.00635-1.6333.021-2.51563a.75011.75011 0 011.5.02539c-.01465.87354-.021 1.70508-.021 2.49024l.001.51318a.74989.74989 0 01-.748.752zm.10205-6.03467l-.02881-.00049a.7499.7499 0 01-.72119-.77783c.04-1.05567.08936-2.063.14746-3.02735a.74988.74988 0 011.49707.08985q-.0857 1.43041-.14551 2.99414A.7498.7498 0 01176.1304 132.36063zm.36719-6.0166c-.02149 0-.04346-.001-.06543-.00293a.74928.74928 0 01-.68262-.81153c.09082-1.05713.19336-2.061.3042-3.02148a.75011.75011 0 011.49023.17285c-.10986.9458-.21044 1.93506-.30029 2.97754A.75008.75008 0 01176.49759 126.344zm.69287-5.98829a.74966.74966 0 01-.74317-.85839c.15186-1.04.313-2.03321.48047-2.99561a.74985.74985 0 011.47754.25684c-.16455.9497-.32373 1.9292-.47363 2.95556A.75033.75033 0 01177.19046 120.35574zm1.02246-5.93994a.78511.78511 0 01-.14209-.01318.75077.75077 0 01-.5957-.87793l.57666-2.96a.75019.75019 0 111.47265.28711l-.57568 2.95508A.75056.75056 0 01178.21292 114.4158zm1.13867-5.91894a.75074.75074 0 01-.73877-.88379c.17334-.95508.34131-1.93359.501-2.9541a.75026.75026 0 111.48242.23242c-.16162 1.03223-.33252 2.02246-.50781 2.98926A.74978.74978 0 01179.35159 108.49686zm.92578-5.95606a.77585.77585 0 01-.09472-.00586.75008.75008 0 01-.65039-.83789c.11914-.94531.22949-1.9331.32861-2.97363a.75.75 0 111.49316.14258c-.10107 1.05615-.2124 2.05859-.33349 3.01855A.74981.74981 0 01180.27737 102.5408zm.57129-6.00244c-.01562 0-.03174-.00049-.04785-.00146a.7501.7501 0 01-.70117-.7959c.06348-.99756.10791-1.98682.13525-2.98682a.71516.71516 0 01.77-.729.74965.74965 0 01.729.77c-.02735 1.01758-.07276 2.02539-.13721 3.04053A.7503.7503 0 01180.84866 96.53836zm.166-6.03027a.75021.75021 0 01-.75-.74561c-.00586-.96972-.02588-1.96386-.0586-2.99658a.74976.74976 0 01.72559-.77344.737.737 0 01.77344.72559c.03369 1.04639.05371 2.05322.05957 3.03564a.7499.7499 0 01-.74561.7544zm-.18408-6.03028a.74994.74994 0 01-.74854-.71191c-.04883-.95947-.105-1.95752-.16992-3.00342a.74977.74977 0 01.70215-.79492.74144.74144 0 01.79492.70215c.06494 1.05176.12207 2.05566.1709 3.02a.75014.75014 0 01-.71094.78711zm-.36866-6.02246a.74975.74975 0 01-.74707-.69824q-.0996-1.43994-.21435-3.00586a.75.75 0 011.49609-.10937q.11425 1.571.21436 3.01172a.74959.74959 0 01-.69629.7998C180.4971 78.45487 180.47952 78.45535 180.46194 78.45535zm-.43652-6.01757a.7501.7501 0 01-.74707-.69385l-.22656-3.00684a.75022.75022 0 011.49609-.11426l.22656 3.00879a.75052.75052 0 01-.69189.8042C180.06351 72.43729 180.04446 72.43778 180.02542 72.43778zm-.46875-6.01465a.74985.74985 0 01-.74609-.68653q-.13038-1.53075-.26807-2.999a.74984.74984 0 111.49316-.13965q.13843 1.47363.269 3.01172a.74947.74947 0 01-.6836.81055Q179.5889 66.42313 179.55667 66.42313zm-.56348-6.0083a.75014.75014 0 01-.74511-.67432q-.15675-1.53882-.31885-2.99414a.75016.75016 0 111.49121-.165q.16186 1.46118.31982 3.00781a.74982.74982 0 01-.67041.82178C179.04446 60.41336 179.01858 60.41483 178.99319 60.41483zm-.66406-5.999a.75039.75039 0 01-.74365-.66064q-.18676-1.552-.3711-2.98877a.75021.75021 0 111.48829-.19043q.18456 1.44067.37207 3.00049a.75012.75012 0 01-.65528.834A.70514.70514 0 01178.32913 54.4158zM176.11575 142.971a.74992.74992 0 01-.749-.72412c-.01563-.45557-.03125-.95752-.04492-1.50244a.75071.75071 0 01.73193-.76807.77856.77856 0 01.76807.73193c.01269.53907.02832 1.03614.04394 1.48682a.74981.74981 0 01-.72363.77539z"/><polygon fill="#e19974" points="147.421 147.927 133.285 147.927 128.522 122.892 152.184 122.892 147.421 147.927"/><polygon fill="#d6694b" points="151.641 125.75 152.185 122.893 128.522 122.893 129.066 125.75 151.641 125.75"/><rect width="4.223" height="4.223" x="132.303" y="136.059" fill="#d6694b" transform="rotate(45 134.415 138.17)"/><rect width="4.223" height="4.223" x="138.276" y="136.059" fill="#d6694b" transform="rotate(45 140.387 138.17)"/><rect width="4.223" height="4.223" x="144.18" y="136.059" fill="#d6694b" transform="rotate(45 146.291 138.17)"/><path fill="#558031" d="M145.85979,101.824s1.24137,17.53748-6.03439,21.25415C139.8254,123.07818,137.30655,116.42912,145.85979,101.824Z"/><path fill="#849f4c" d="M122.38232,109.35737s11.90278,2.05371,17.44308,13.72081C139.8254,123.07818,126.7364,118.63261,122.38232,109.35737Z"/><path fill="#a6b862" d="M126.60273,132.32912s6.05337-9.0561,13.22267-9.25094C139.8254,123.07818,138.7461,130.37,126.60273,132.32912Z"/><path fill="#849f4c" d="M134.06967,104.3238s8.3991,7.66866,5.75573,18.75438C139.8254,123.07818,135.17261,118.14628,134.06967,104.3238Z"/><path fill="#a6b862" d="M139.8254,123.07818s2.95091-10.80205,17.86844-13.572C157.69384,109.50619,154.33674,119.34163,139.8254,123.07818Z"/><path fill="#849f4c" d="M161.64553,120.25444s-11.38166-4.69218-21.82013,2.82374C139.8254,123.07818,153.70224,124.74422,161.64553,120.25444Z"/><path fill="#558031" d="M161.542 131.17834s-5.49566-8.80276-21.71658-8.10016zM116.2516 121.65331s14.94766-5.54254 23.76941 1.15985C140.021 122.81316 131.64452 127.427 116.2516 121.65331z"/><path fill="#558031" d="M128.50905,105.6044s13.33785,9.43347,11.42452,17.48144C139.93357,123.08584,130.68018,115.66659,128.50905,105.6044Z"/><path fill="#849f4c" d="M151.90607,132.46768s-10.99554-1.87718-12.08067-9.3895C139.8254,123.07818,147.85953,123.4761,151.90607,132.46768Z"/><path fill="#8b9d36" d="M27.68805,297.44813c2.41169,1.874,6.66064,6.32428,6.77527,9.662,0,0,7.80886-8.49083,5.58875-15.75216a13.56165,13.56165,0,0,0-6.20117-6.24613s3.06211-1.7178,6.27749,2.49855c0,0-1.14822-11.39937-17.03351-7.26134,0,0-6.20117-12.64855-18.48825-.70275,0,0,8.268-1.054,6.66033,1.52258a24.03343,24.03343,0,0,0-8.249,4.16424,8.26516,8.26516,0,0,0-2.77522,5.77116c-.19126,3.08407-.4847,9.18707.115,9.27174.80369.11707,6.08622-4.68464,9.64612-4.33326s-8.15338,10.89168-8.15338,10.89168,2.41169,9.13512,3.44527,9.01805c1.03327-.11707,4.78474-2.73269,3.25338,0l-2.641,2.10809,3.445,4.76279,8.65085-3.82589s-3.82779-10.46231-.30621-7.61255c0,0,2.67927,3.55267,2.71759,6.2072,0,0,11.579-5.036,10.43081-8.491a77.60576,77.60576,0,0,0-4.37636-9.3367,3.94806,3.94806,0,0,1-.47848-1.65268C25.953,297.23337,26.18254,296.27693,27.68805,297.44813Zm-1.42265-12.128c1.08466-.74834,3.75147-.26686,4.753,2.17307,1.07189,2.6091,1.027,5.51748-.05732,6.26566-1.08467.74834-4.16609-.22763-4.938-2.75223C25.16827,288.19594,25.181,286.06831,26.2654,285.32012Z"/><path fill="#5e7c24" d="M23.09479,280.34911a42.86886,42.86886,0,0,0-3.41749,4.4433,26.03514,26.03514,0,0,0-2.42194,5.01458c-.63109,1.74936-1.13914,3.54361-1.59518,5.35822-.462,1.81592-.90331,3.62988-1.27119,5.46185-.38984,1.82679-.73048,3.66562-1.00943,5.51181-.28724,1.84632-.45249,3.704-.67936,5.571a31.14339,31.14339,0,0,1-3.30139,10.74063,37.45345,37.45345,0,0,0,1.83373-5.29852,29.87267,29.87267,0,0,0,.97486-5.49463A87.05718,87.05718,0,0,1,13.759,300.49559c.38936-1.84011.85353-3.66522,1.33467-5.47744a44.89586,44.89586,0,0,1,1.70107-5.38785,26.10655,26.10655,0,0,1,2.62149-5.01236A37.15247,37.15247,0,0,1,23.09479,280.34911Z"/><path fill="#5e7c24" d="M18.58546 286.30046a26.646 26.646 0 00-3.71708 1.07035c-1.20807.43921-2.40216.91537-3.56094 1.47232-2.35019 1.04944-4.57934 2.34-6.854 3.608.49664-.421 1.01509-.81464 1.52924-1.217.53825-.36542 1.06828-.747 1.6193-1.09641a33.56886 33.56886 0 013.43685-1.87939 28.11693 28.11693 0 013.68043-1.35776A14.54258 14.54258 0 0118.58546 286.30046zM13.35179 304.41344c-.88964.68985-1.81577 1.25439-2.72022 1.84363q-.67988.4362-1.32793.90115a3.64574 3.64574 0 00-1.099 1.1427 2.39913 2.39913 0 01.76337-1.51706 7.73889 7.73889 0 011.3138-1.06741A9.47466 9.47466 0 0113.35179 304.41344zM15.12544 296.07112a30.58879 30.58879 0 012.92624 3.15625A37.07 37.07 0 0120.57 302.73015a24.75422 24.75422 0 011.96583 3.85477 11.73541 11.73541 0 01.90344 4.21451 16.60972 16.60972 0 00-1.359-4.01944 30.62883 30.62883 0 00-2.05654-3.70972c-.722-1.22086-1.5446-2.381-2.36467-3.54419C16.8361 298.36415 15.98639 297.21849 15.12544 296.07112z"/><path fill="#8b9d36" d="M4.53,332.66119l3.21535,2.96695s3.13879-3.3183,3.48329-1.015c0,0-.49761,2.3033-1.11006,2.49849,0,0,7.69387,6.18766,9.24413,1.09309a49.14282,49.14282,0,0,1,2.3541-6.67565s1.7225.93693.22966,8.31528c0,0,5.95438-1.74977,8.16551-4.95984a2.29627,2.29627,0,0,0,.389-1.28081c.0213-1.83519.26318-7.00034,2.35476-5.0611,0,0,1.20576.58558.28709,4.509,0,0,4.84585-5.46308,2.54407-8.8208a3.35735,3.35735,0,0,0-4.11677-1.08625c-1.34571.58416-3.84261,1.66-8.47527,3.64131A92.45638,92.45638,0,0,1,4.53,332.66119Z"/><path fill="#5e7c24" d="M15.12544 337.18969a18.36235 18.36235 0 011.58279-4.86585 11.82854 11.82854 0 011.35952-2.20279 5.26166 5.26166 0 01.93386-.9266 1.958 1.958 0 011.22321-.43714 3.518 3.518 0 00-1.7493 1.65781 22.36435 22.36435 0 00-1.18881 2.1915C16.54752 334.10945 15.88913 335.65779 15.12544 337.18969zM25.58286 334.76928a15.27667 15.27667 0 01.40767-4.49891 11.53756 11.53756 0 01.7517-2.15829 3.38712 3.38712 0 011.52009-1.69711 4.61121 4.61121 0 00-1.05595 1.89035c-.22446.69433-.41724 1.401-.59008 2.11682C26.26772 331.85558 25.97846 333.30794 25.58286 334.76928zM79.09546 281.58192s-7.73215 1.10951-.84212 6.575c0 0 1.76079 1.48348 7.50248 3.20119C85.75582 291.35806 89.354 275.70966 79.09546 281.58192z"/><path fill="#50661a" d="M85.75582,291.35805c-.14316-.51248-.23695-1.02582-.36581-1.53024-.161-.4964-.27727-1.00153-.45346-1.48541a14.39184,14.39184,0,0,0-1.29285-2.77277,10.90627,10.90627,0,0,0-1.94941-2.32657,9.24709,9.24709,0,0,0-2.59883-1.66113,6.54176,6.54176,0,0,1,2.91476,1.27,8.85,8.85,0,0,1,2.18027,2.37765,10.778,10.778,0,0,1,1.22636,2.97083c.14034.51526.1931,1.05.28206,1.57116C85.72488,290.30358,85.75713,290.83181,85.75582,291.35805Z"/><path fill="#5e7c24" d="M69.2825,249.96611s8.5723-5.46149,11.13986,6.66537c0,0-4.44872-3.82925-4.50765-1.61407a16.97938,16.97938,0,0,1,3.227,5.74969,6.29573,6.29573,0,0,1-.62009,4.64846c-1.08966,1.98313-3.29121,5.87839-3.67815,5.702-.51807-.23613-1.75194-5.24254-3.981-6.392s.54852,9.88543.54852,9.88543-4.97627,4.73833-5.53806,4.26875-1.74836-3.5309-1.91269-1.249l.73144,2.321-3.88026,1.63013-3.59384-5.695s6.32577-5.0174,3.14577-4.60284c0,0-2.95883,1.17373-4.01556,2.80514,0,0-4.84338-7.57015-2.82246-9.27145a57.35908,57.35908,0,0,1,6.19441-4.1011,2.90273,2.90273,0,0,0,1.054-1.02848c.285-.49106.34055-1.0144-.85243-.88344-2.14735.23573-6.37838,1.36346-7.74625,3.38909,0,0-1.28141-8.26435,2.85233-11.91423a9.54562,9.54562,0,0,1,6.078-1.49146s-1.13056-2.2413-4.66291-.86186C56.44239,247.92628,61.55838,241.29875,69.2825,249.96611Z"/><path fill="#50661a" d="M73.12409 263.54265c-.69961-1.70523-1.35607-3.395-2.15395-5.00668a14.56338 14.56338 0 00-1.387-2.27509 3.532 3.532 0 00-2.13543-1.47528 3.117 3.117 0 012.51205 1.14224 9.915 9.915 0 011.58607 2.31968A16.58367 16.58367 0 0173.12409 263.54265zM55.51623 267.62242a12.88707 12.88707 0 011.63863-2.65026 12.30785 12.30785 0 012.22362-2.222 8.17573 8.17573 0 012.82217-1.44873 5.43614 5.43614 0 013.12468.1012 7.11541 7.11541 0 00-2.97472.37866 9.89041 9.89041 0 00-2.58085 1.48025 17.91088 17.91088 0 00-2.23613 2.03827C56.83969 266.04265 56.15761 266.80837 55.51623 267.62242z"/><path fill="#50661a" d="M63.5546,251.06993a3.96843,3.96843,0,0,1,2.64675-1.555,6.21935,6.21935,0,0,1,1.5847-.04233,8.87115,8.87115,0,0,1,1.5525.31949l.1885.05292-.07695.19437c-1.00143,2.52938-1.85223,5.12783-2.69246,7.7203-.82221,2.6008-1.56291,5.22608-2.28809,7.85581q-1.04584,3.95594-1.95788,7.94824c-.61168,2.661-1.14969,5.33819-1.7003,8.01825.33645-2.71387.74069-5.4227,1.27059-8.10828.48195-2.696,1.13615-5.35663,1.8-8.013.66969-2.65594,1.465-5.279,2.32125-7.88055.85093-2.60474,1.8044-5.17209,2.91157-7.687l.11144.247-.73159-.218c-.24888-.04709-.49636-.10929-.74668-.15042a5.96644,5.96644,0,0,0-1.51795-.04923A4.00738,4.00738,0,0,0,63.5546,251.06993Z"/><path fill="#50661a" d="M66.20483,274.51335a14.19827,14.19827,0,0,0-1.0269-2.70715,2.43721,2.43721,0,0,0-.8785-.94659,2.98448,2.98448,0,0,0-1.37163-.25543,2.02034,2.02034,0,0,1,1.565-.20865,2.336,2.336,0,0,1,1.24155,1.08661A4.54588,4.54588,0,0,1,66.20483,274.51335Z"/><path fill="#c4ce6e" d="M37.60214,337.1897s-1.52394-5.26049-5.39241-2.28652a7.76324,7.76324,0,0,0-2.68086,4.113c-.69767,2.51767-1.30073,7.08012.41768,13.55487,0,0,3.96024-5.47889,6.89-7.41738C40.14072,342.96745,42.27205,337.97047,37.60214,337.1897Z"/><path fill="#8b9d36" d="M37.60214 337.18969a6.63045 6.63045 0 00-1.50247 1.54556 15.12506 15.12506 0 00-1.18489 1.80148 34.45947 34.45947 0 00-1.90691 3.87933c-.58435 1.32239-1.08819 2.68015-1.5885 4.04236L29.94655 352.571c.12577-.72.29221-1.43066.43762-2.14828.1681-.71109.37729-1.4115.56444-2.11923.40668-1.406.92142-2.77927 1.468-4.14151a27.31373 27.31373 0 012.08018-3.8873A8.81781 8.81781 0 0137.60214 337.18969zM43.18552 264.11525s.12905-5.48371-4.44661-3.861a7.62961 7.62961 0 00-3.78718 3.0779c-1.42021 2.17875-3.36442 6.33357-3.673 13.03393 0 0 5.41527-3.97855 8.78641-4.90872C43.867 270.4083 47.39653 266.31722 43.18552 264.11525z"/><path fill="#5e7c24" d="M43.18552,264.11525a6.51822,6.51822,0,0,0-1.89524,1.00138,14.85431,14.85431,0,0,0-1.67,1.345,33.87871,33.87871,0,0,0-2.98087,3.09775c-.95312,1.07669-1.84033,2.21145-2.72516,3.35189L31.27872,276.366c.3356-.645.70716-1.2688,1.06077-1.90558.37317-.62378.78258-1.22473,1.173-1.83942a43.36721,43.36721,0,0,1,2.64071-3.48334,26.89824,26.89824,0,0,1,3.14906-3.05325A8.67657,8.67657,0,0,1,43.18552,264.11525Z"/><path fill="#8b9d36" d="M77.72011,337.1897s1.52394-5.26049,5.39241-2.28652a7.76332,7.76332,0,0,1,2.68087,4.113c.69766,2.51767,1.30072,7.08012-.41769,13.55487,0,0-3.96024-5.47889-6.89-7.41738C75.18154,342.96745,73.0502,337.97047,77.72011,337.1897Z"/><path fill="#5e7c24" d="M77.72011,337.18969a8.81784,8.81784,0,0,1,3.10535,3.085,27.31361,27.31361,0,0,1,2.08016,3.8873c.54661,1.36224,1.06134,2.73547,1.468,4.14151.18715.70773.39634,1.40814.56444,2.11923.14541.71762.31184,1.42831.43762,2.14828l-1.47281-4.11258c-.50032-1.36221-1.00415-2.72-1.58851-4.04236a34.46111,34.46111,0,0,0-1.9069-3.87933,15.12636,15.12636,0,0,0-1.1849-1.80148A6.63065,6.63065,0,0,0,77.72011,337.18969Z"/><path fill="none" stroke="#50661a" stroke-miterlimit="10" stroke-width=".644" d="M79.09546 281.58192s-19.26145-16.458-24.25291 79.69476M60.81137 281.58192s-9.58227 63.41555-3.84058 79.69476M53.31765 361.27668s-7.12112-28.57719-15.71551-24.087M54.341 352.75463s6.20629-106.17218-11.15547-88.63938M62.0046 361.27668s7.12112-28.57719 15.71551-24.087M35.14638 323.63159S48.6262 320.3249 55.97557 360.613M39.58689 298.66838s3.90541 2.60555 18.683 61.94464M76.49984 312.13123s-14.59619 23.10652-15.95256 49.14545"/><path fill="#9857bd" d="M37.6787,354.45641v5.34632a1.85289,1.85289,0,0,0,1.83438,1.87085H76.26584a1.85289,1.85289,0,0,0,1.83439-1.87085v-4.927a1.85338,1.85338,0,0,0-1.81386-1.87073l-36.75277-.41936A1.85239,1.85239,0,0,0,37.6787,354.45641Z"/><polygon fill="#cb97e7" points="39.433 361.674 40.74 389.268 74.174 389.268 76.346 361.674 39.433 361.674"/><path fill="#5e7c24" d="M70.48286,310.55862c.05109-2.51792,5.257,2.04964,5.257,2.04964-3.10073-13.91745-13.00821-8.11372-13.00821-8.11372-9.05924-10.228-14.94112-2.93427-14.94112-2.93427,4.08915-1.399,5.42271,1.2036,5.42271,1.2036a10.888,10.888,0,0,0-7.04971,1.40535c-4.76543,3.956-3.20229,13.41643-3.20229,13.41643,1.56937-2.23819,6.48153-3.31837,8.96953-3.48738,1.56314-.10421,1.2887.66367.86786,1.24919a3.1611,3.1611,0,0,1-1.06535.91084,62.50825,62.50825,0,0,0-7.17712,4.37885c-2.33506,1.83487,3.36832,10.67723,3.36832,10.67723,1.21207-1.8023,4.638-2.99955,4.638-2.99955,3.69385-.31881-3.611,5.08811-3.611,5.08811l4.22964,6.6496,4.49785-1.67221-.87409-2.67407c.17226-2.58957,1.57591.94992,2.23288,1.50939.657.56614,6.39866-4.58694,6.39866-4.58694s-3.33-12.68764-.7336-11.26927c2.603,1.41186,4.08292,7.16364,4.68912,7.4564.45293.22128,2.973-4.10563,4.22341-6.31125a6.899,6.899,0,0,0,.67628-5.25078A20.51137,20.51137,0,0,0,70.48286,310.55862Zm-14.5265-.104c-1.65877,1.37277-4.21063.61157-4.61871-.40984-.41493-1.015.85478-3.03863,2.7559-4.3269,1.77995-1.21028,3.8278-.30579,4.23618.71578C58.74435,307.44851,57.80017,308.91914,55.95636,310.45458Z"/><path fill="#50661a" d="M62.73016,304.49453a31.0407,31.0407,0,0,1,.64587,4.605,21.60055,21.60055,0,0,1-.414,4.6539,35.91419,35.91419,0,0,1-1.22867,4.5c-.47852,1.47058-.974,2.94345-1.52809,4.39352a70.39019,70.39019,0,0,1-3.9491,8.41791,24.46548,24.46548,0,0,0-1.80358,4.22687,31.47378,31.47378,0,0,0-1.13492,4.4808,25.35493,25.35493,0,0,1,2.49662-8.93207,80.03957,80.03957,0,0,0,3.7908-8.42572c.56755-1.43112,1.07641-2.883,1.57289-4.34588.50021-1.459.9496-2.92694,1.30127-4.41693a21.529,21.529,0,0,0,.58284-4.548A37.12637,37.12637,0,0,0,62.73016,304.49453Z"/><path fill="#50661a" d="M63.16669 310.67766a11.734 11.734 0 012.42842 2.18289 20.69042 20.69042 0 011.93137 2.64191 23.94151 23.94151 0 011.51217 2.8956 21.63715 21.63715 0 011.08335 3.07327l-1.53459-2.85159c-.52257-.93765-1.0407-1.874-1.609-2.77927q-.83769-1.36609-1.7748-2.66751A25.07523 25.07523 0 0063.16669 310.67766zM58.66492 325.54891a7.12083 7.12083 0 011.57834 2.29407 6.12741 6.12741 0 01.4154 1.35321 1.97065 1.97065 0 01-.19677 1.41516 3.29955 3.29955 0 00-.28914-1.28611c-.16653-.40838-.338-.81613-.51939-1.22415A21.12229 21.12229 0 0158.66492 325.54891zM61.17561 318.99572l-3.26992 1.23733c-1.0798.424-2.15471.854-3.20066 1.34119a28.54771 28.54771 0 00-3.06819 1.5802 13.94584 13.94584 0 00-2.7532 2.09 9.12385 9.12385 0 012.47677-2.50991 17.813 17.813 0 013.07831-1.74653A25.31506 25.31506 0 0161.17561 318.99572z"/><path fill="#c4ce6e" d="M93.58425,294.82615s7.46811-11.15591,16.8082,2.01816c0,0-7.31492-2.20689-6.24233.483a21.73677,21.73677,0,0,1,6.84,5.16732,8.22334,8.22334,0,0,1,1.65506,5.91113c-.28407,2.96477-.91553,8.82106-1.47089,8.81715-.74356-.00522-4.80815-5.35061-8.07638-5.53324s5.76035,11.56823,5.76035,11.56823-3.526,8.35757-4.44256,8.09566-3.92045-3.29854-2.93989-.472l2.07564,2.39252-3.815,4.03929-7.252-4.90476s5.00143-9.41695,1.39933-7.2123c0,0-2.94485,2.99695-3.37093,5.522,0,0-9.71929-6.48415-8.17222-9.61067a76.81973,76.81973,0,0,1,5.30666-8.23289,3.94131,3.94131,0,0,0,.74055-1.78611c.09694-.75348-.09437-1.438-1.47542-.63038-2.45521,1.43568-6.95046,5.06039-7.54646,8.22553,0,0-5.80315-9.22946-2.72638-15.82856a12.74919,12.74919,0,0,1,6.52392-5.05274s-2.51348-2.08266-6.0404,1.469C77.12308,299.2715,79.84173,288.57184,93.58425,294.82615Z"/><path fill="#8b9d36" d="M93.58425,294.82616a80.78634,80.78634,0,0,1,3.23013,10.30765c.8761,3.49734,1.55412,7.04382,2.08511,10.61081a106.33865,106.33865,0,0,1,1.0014,10.76751,92.55863,92.55863,0,0,1-.16445,10.80127c-.02833-3.60034-.04647-7.19308-.3304-10.77429q-.34044-5.37345-1.14337-10.70187c-.47524-3.55753-1.15925-7.084-1.92849-10.59043C95.56039,301.7408,94.66792,298.258,93.58425,294.82616Z"/><path fill="#8b9d36" d="M95.44827 300.76442a17.16739 17.16739 0 00-1.61391 2.395 26.06207 26.06207 0 00-1.267 2.56851c-.37629.87833-.7038 1.778-1.00713 2.69056-.30021.914-.56869 1.84137-.8543 2.77969a15.35066 15.35066 0 01.36966-2.91345 16.61429 16.61429 0 01.89981-2.81009 14.61335 14.61335 0 011.43683-2.58478A8.81556 8.81556 0 0195.44827 300.76442zM98.55563 315.54039a7.37959 7.37959 0 014.75369 3.48172 6.044 6.044 0 01.71737 1.872 16.40419 16.40419 0 00-2.41341-2.99988A18.27267 18.27267 0 0098.55563 315.54039z"/><path fill="#4f66d0" d="M220.50442,167.53391l-2.171.882-1.85927-4.57682c-2.00694-4.94035-8.249-7.08733-13.9145-4.78578-5.67032,2.30348-8.64669,8.19529-6.63974,13.13564l1.85926,4.57682-2.171.882-1.85927-4.57682c-2.431-5.98426,1.174-13.12092,8.03638-15.90866,6.86767-2.78989,14.4289-.18936,16.85992,5.7949Z"/><path fill="#a2aee6" d="M223.8627,179.47232l-.07591.03084L218.976,167.66089l.00147.00167.07591-.03084a3.15255,3.15255,0,0,1,4.10577,1.73361l2.43859,6.00289a3.15255,3.15255,0,0,1-1.73361,4.10577l-.07591.03084"/><path fill="#4f66d0" d="M223.94377,179.43939l-.07591.03084L219.05711,167.628l.00147.00167-.07591.03084a3.15257,3.15257,0,0,0-1.73361,4.10578l2.43858,6.00289a3.15257,3.15257,0,0,0,4.10578,1.73361l.07591-.03084.07591-.03084"/><path fill="#f9977a" d="M233.863,199.4542s.9944.10369,2.49027.20965c3.20841.22729,7.67457,6.1944,13.60573,18.75452l3.94147,8.34664s11.94034-15.4181,19.12772-20.05513l7.50506,5.259-18.30838,25.35253a14.4902,14.4902,0,0,1-4.8698,4.812c-4.53719,2.657-9.35547,2.14349-12.25465-2.564-4.535-7.36365-10.07214-18.65363-10.72339-21.85066Z"/><path fill="#f9977a" d="M272.17332,207.40661s1.3861-2.88413,7.91332-5.56838,11.95008-4.101,7.90216-1.20834l-3.12116,2.15318s5.66986.22623,9.05939.06518a4.202,4.202,0,0,1,4.19887,2.71464c.55918,1.59195-.01148,2.81869-3.87,3.75938a40.31808,40.31808,0,0,1-11.0518,1.37668,2.394,2.394,0,0,0-1.48276.43635l-1.18817.83361Z"/><path fill="#dd765e" d="M281.434 202.92064a5.87077 5.87077 0 011.7053-.32641 5.15462 5.15462 0 011.72833.18884 8.97106 8.97106 0 01-1.70832.24264A7.58642 7.58642 0 01281.434 202.92064zM288.52734 204.93386c1.40051-.22559 2.79876-.33448 4.1889-.521.69775-.066 1.39163-.16061 2.08441-.25772.69348-.09674 1.38339-.20709 2.07837-.34958a9.74447 9.74447 0 01-2.01739.67658c-.69123.16687-1.39466.25936-2.09549.35977A22.34888 22.34888 0 01288.52734 204.93386zM289.08254 206.9515c1.54535-.13233 3.07981-.18561 4.60056-.37058a20.50561 20.50561 0 002.26529-.32553 7.94967 7.94967 0 002.17752-.69251 5.48728 5.48728 0 01-2.09882 1.01569 14.90265 14.90265 0 01-2.29806.43182A19.96782 19.96782 0 01289.08254 206.9515zM290.04916 208.70382c1.29208-.131 2.5693-.18766 3.84091-.33484 1.27746-.10386 2.52951-.30539 3.8081-.53061a11.73722 11.73722 0 01-3.76544.96045A15.5467 15.5467 0 01290.04916 208.70382z"/><path fill="#f9977a" d="M260.64406,362.35136s-2.93646,8.59085,17.14553,22.62863a1.19035,1.19035,0,0,1,.51587,1.21247c-.26673,1.16064-2.454,2.33118-14.57394-3.8713a84.08231,84.08231,0,0,0-18.406-6.83739h0a3.44434,3.44434,0,0,1-2.4531-4.716l4.50226-11.519Z"/><path fill="#f73c4f" d="M241.8439,372.67567a.96965.96965,0,0,1,1.31111-.37056A174.10958,174.10958,0,0,0,262.26473,381.5a12.3253,12.3253,0,0,1,4.41666-3.73707,2.60186,2.60186,0,0,1,2.79228.34521l4.44628,3.703a.42537.42537,0,0,1-.20429.74548,3.12158,3.12158,0,0,0-2.13231,2.06231,21.7395,21.7395,0,0,0,6.0997.95153.969.969,0,0,1,1.06361.84542.9506.9506,0,0,1-.84815,1.05352,19.56973,19.56973,0,0,1-5.83835-.75021c-4.44628-1.03963-11.70166-3.45113-22.65617-8.96613L248.64481,381l-7.80947-2.47322S241.64673,373.02985,241.8439,372.67567Z"/><path fill="#f9977a" d="M314.93287,338.93787s1.94081,9.26724,27.42334,11.16317a1.24139,1.24139,0,0,1,1.10816.81261c.37878,1.18281-.95939,3.397-15.13025,4.28809a87.68961,87.68961,0,0,0-20.14588,3.6686h0a3.59208,3.59208,0,0,1-4.71077-2.923l-2.09574-12.72672Z"/><path fill="#f73c4f" d="M303.571,358.20593a1.01123,1.01123,0,0,1,.97842-1.03037,181.57747,181.57747,0,0,0,22.03217-1.92918,12.85411,12.85411,0,0,1,1.97086-5.70276,2.71349,2.71349,0,0,1,2.68776-1.17714l5.95877.95331a.44361.44361,0,0,1,.21372.77727,3.25553,3.25553,0,0,0-.81408,2.98468,22.67225,22.67225,0,0,0,5.97648-2.39441,1.01054,1.01054,0,0,1,1.40391.19183.99135.99135,0,0,1-.19964,1.39631,20.40922,20.40922,0,0,1-5.63493,2.43579c-4.54069,1.43507-12.33085,3.13558-25.09059,4.0226l1.048,3.3158-8.31991,1.94018S303.58277,358.62852,303.571,358.20593Z"/><path fill="#160b07" d="M223.64976,218.14814c.41924-5.01716-.07264-12.0603-4.15751-20.81651a29.708,29.708,0,0,0-11.11086-5.59444c1.4-.57053,2.55007-.97151,3.58239-1.51775,6.85775-3.62863,12.08627-15.57849,7.88764-22.93646-3.6593-6.41286-13.15395-7.01464-15.46394-7.16118a17.24715,17.24715,0,0,0-15.46389,6.64217,19.65965,19.65965,0,0,0-3.94382,9.75579c-.50265,3.51482-.33663,3.76419-2.28328,7.75705-2.15522,4.42065-4.0476,6.35775-4.46278,10.4053-.26283,2.56316,1.265,5.99013,2.55482,8.43864a31.27891,31.27891,0,0,0-2.84948,15.1431c.35927,7.78386,3.82785,15.92351,4.74329,18.07176,2.04415,4.79713,4.00986,7.74289,3.45379,12.1986-.49388,3.95781-2.44887,4.87-3.67518,8.40739-2.28338,6.58663.105,16.08588,5.81562,20.28736,9.36454,6.88985,26.83494-1.0756,30.39452-11.01383,2.39772-6.69454-3.32251-9.24228-3.10476-20.49472C215.80192,233.544,222.61665,230.51207,223.64976,218.14814Z"/><path fill="#065ea5" d="M324.16836,332.94436l-25.1009-52.67653a23.06512,23.06512,0,0,0-14.34108-12.20743c-9.95566-2.92-25.7125-7.01392-39.67247-8.3309,0,0-33.55207.42471-49.691-8.06949,0,0-19.96136,27.60614,2.973,45.86866,0,0,9.68562,8.568,33.59237,4.77092a16.01327,16.01327,0,0,1,15.89628,6.81766,16.719,16.719,0,0,1,2.5383,10.921s.81856,6.64124-8.367,35.42675a3.89721,3.89721,0,0,0,2.28312,4.82431,58.282,58.282,0,0,0,22.63056,4.07549,3.88559,3.88559,0,0,0,3.64721-3.14657l10.38526-47.55062,15.61438,32.00947a3.88307,3.88307,0,0,0,4.46951,2.06248c5.99606-1.56354,18.94571-5.47026,22.82254-10.89476A3.85819,3.85819,0,0,0,324.16836,332.94436Z"/><path fill="#065082" d="M280.72952,309.42055a38.44244,38.44244,0,0,0-.85346-7.22055,24.50762,24.50762,0,0,0-2.39816-6.7688,11.317,11.317,0,0,0-11.65445-6.297,31.41419,31.41419,0,0,0-7.13062.86249,33.94288,33.94288,0,0,0-6.745,2.49671c-2.17435,1.04943-4.26258,2.2998-6.39508,3.48574a41.75174,41.75174,0,0,1-6.65711,3.036c4.49977-1.91593,8.362-4.90091,12.70365-7.20749a30.86331,30.86331,0,0,1,14.20056-3.672,13.49076,13.49076,0,0,1,7.30594,1.46765,12.81692,12.81692,0,0,1,5.04782,5.46771A29.21231,29.21231,0,0,1,280.72952,309.42055Z"/><path fill="#065082" d="M256.10494 296.04219c-.984 2.24064-2.05606 4.382-2.99533 6.57172a31.37787 31.37787 0 00-1.22438 3.3241 6.62389 6.62389 0 00-.24832 3.48254 5.07089 5.07089 0 01-.51447-3.64712 16.10943 16.10943 0 011.06821-3.55234A23.056 23.056 0 01256.10494 296.04219zM250.36279 297.3163a24.75921 24.75921 0 00-.72236 2.46414 19.24787 19.24787 0 00-.50511 4.94617c.007.84226.1147 1.67914.16568 2.57038a7.57994 7.57994 0 01-.941-2.48172 8.821 8.821 0 01-.12663-2.6807 8.91966 8.91966 0 01.66911-2.59854A6.61684 6.61684 0 01250.36279 297.3163zM289.43609 279.4785l-3.11615 2.39688c-1.03009.79474-2.06024 1.58112-3.0441 2.41626a36.3495 36.3495 0 00-2.86526 2.583 17.08244 17.08244 0 00-2.44165 3.00928 9.54793 9.54793 0 011.85623-3.52524 18.70059 18.70059 0 012.81268-2.83627A25.06472 25.06472 0 01289.43609 279.4785zM288.162 274.80669l-2.5191 2.27649c-.82419.75876-1.65372 1.50339-2.42255 2.30133a26.68753 26.68753 0 00-2.20963 2.46323 15.4701 15.4701 0 00-1.76764 2.83346 7.75955 7.75955 0 011.12177-3.27139 13.98478 13.98478 0 012.14651-2.72968 18.87779 18.87779 0 012.64832-2.2059A15.40972 15.40972 0 01288.162 274.80669zM268.07705 350.11928a39.278 39.278 0 01-8.215 1.54224 34.35109 34.35109 0 01-4.19153.11639 16.80637 16.80637 0 01-4.159-.59683c1.40011.01007 2.77237-.10208 4.1466-.18341q2.05948-.14636 4.11957-.332C262.52877 350.44872 265.27685 350.17989 268.07705 350.11928zM261.81741 355.21581a28.8157 28.8157 0 01-7.92154.04568 22.42136 22.42136 0 01-3.90285-.8276 10.921 10.921 0 01-3.57617-1.76633 22.41727 22.41727 0 003.76771 1.00983c1.26833.24551 2.5503.43673 3.83893.59289 1.28586.17807 2.581.31146 3.87909.46146C259.20184 354.86757 260.50338 355.03768 261.81741 355.21581zM311.09628 320.67534a35.8796 35.8796 0 01-4.01111 6.07514 35.42881 35.42881 0 01-2.43607 2.71643 12.2327 12.2327 0 01-2.89645 2.25088c.84112-.88586 1.55975-1.836 2.315-2.77136l2.23969-2.82349A67.48864 67.48864 0 01311.09628 320.67534zM311.09628 329.16954a23.91 23.91 0 01-2.30652 2.97947 34.91987 34.91987 0 01-2.65192 2.6705 29.24519 29.24519 0 01-2.963 2.33609 16.002 16.002 0 01-3.33335 1.78225c1.95282-1.58847 3.78815-3.202 5.62854-4.86184C307.31786 332.43041 309.13052 330.7477 311.09628 329.16954zM209.37829 259.51714c-3.20915.94961-6.40442 1.80209-9.53295 2.84015a46.10135 46.10135 0 00-4.60034 1.74737 13.08064 13.08064 0 00-4.12924 2.63254 9.66242 9.66242 0 013.77489-3.32779 26.38019 26.38019 0 014.641-2.001A38.90165 38.90165 0 01209.37829 259.51714zM200.247 259.51714a31.40388 31.40388 0 01-4.56979 1.48334l-2.294.57489a15.39745 15.39745 0 00-2.26749.70239 5.19861 5.19861 0 012.00627-1.43771 14.95027 14.95027 0 012.30364-.8068A15.55661 15.55661 0 01200.247 259.51714z"/><path fill="#f9977a" d="M204.0365,188.38637l1.76025,7.26267a4.70711,4.70711,0,0,1-2.1849,5.16411l-8.47765,4.99576a23.73056,23.73056,0,0,0-9.09046,9.66l-13.74685,26.94383c-1.68618,3.30491-4.91671,9.5642-2.0789,11.95428,14.522,12.23083,13.94485-6.91361,14.46332-7.79288,2.58452-4.38306,10.6943-17.92911,12.12991-17.7986,0,0,6.53845,13.07689-.467,22.88457.53754-.12489,39.22829,6.31828,39.22829,6.31828s9.18733-24.68821,4.517-38.3878l-3.73625-19.92669s-17.43585-.61253-17.43585-9.6469Z"/><path fill="#dd765e" d="M218.91739,190.017s-3.90948,4.56851-10.36131,1.50333c0,0,3.59482,7.17909,12.23217,3.02993A5.56541,5.56541,0,0,1,218.91739,190.017Z"/><path fill="#f9977a" d="M219.75978,172.05206c-3.83436-8.29944-11.54055-12.90321-17.21224-10.28288-4.37755,2.02245-6.26057,7.75794-5.13039,14.08576a1.74631,1.74631,0,0,0-1.47742.13017c-1.18052.7867-.86714,3.3307.69991,5.68212,1.323,1.98535,3.11453,3.193,4.3515,3.04923,4.12856,6.24183,10.54308,9.37077,15.44186,7.10755C222.10469,189.20363,223.59415,180.35145,219.75978,172.05206Z"/><path fill="#dd765e" d="M192.76362 221.303a26.53769 26.53769 0 013.35713 3.77905 22.76209 22.76209 0 011.37323 2.13269 9.77436 9.77436 0 01.9778 2.33914 19.27291 19.27291 0 00-1.26254-2.16717c-.45731-.697-.93113-1.3848-1.43731-2.0499C194.80642 223.971 193.7506 222.67235 192.76362 221.303zM175.1721 245.27727a9.89407 9.89407 0 014.0097.00592 6.583 6.583 0 011.9041.727 3.701 3.701 0 011.403 1.44663 6.03926 6.03926 0 00-3.3993-1.75162 13.29065 13.29065 0 00-1.93555-.29767C176.49986 245.34279 175.84029 245.30486 175.1721 245.27727zM253.804 226.70668a9.89433 9.89433 0 012.30121 3.28363 6.58415 6.58415 0 01.50036 1.9758 3.701 3.701 0 01-.37652 1.97974 6.03952 6.03952 0 00-.52207-3.78827 13.28594 13.28594 0 00-.86966-1.75461C254.51406 227.83059 254.16576 227.26921 253.804 226.70668zM212.41785 173.04305a5.79874 5.79874 0 001.00791 2.98018 12.90994 12.90994 0 001.99521 2.46953l.60367.53569a1.25917 1.25917 0 01.45568.80767 2.06128 2.06128 0 01-.6457 1.60071 3.71964 3.71964 0 01-3.10539.869 3.99226 3.99226 0 002.85914-1.09269 1.85014 1.85014 0 00.502-1.3237c-.03035-.43472-.564-.69014-.96128-1.07829a11.76841 11.76841 0 01-1.98358-2.61157A5.08921 5.08921 0 01212.41785 173.04305z"/><path fill="#160b07" d="M203.62174 177.40639a.43224.43224 0 01-.38451-.62923c.076-.14907 1.9048-3.64784 5.45825-3.85435a.43233.43233 0 11.05026.86319c-3.06465.17821-4.72218 3.35265-4.73865 3.38474A.43243.43243 0 01203.62174 177.40639zM213.93624 171.68505a.43246.43246 0 01-.2424-.791 8.34359 8.34359 0 015.068-1.28211.43238.43238 0 01-.09248.8598 7.5469 7.5469 0 00-4.4916 1.13937A.43264.43264 0 01213.93624 171.68505zM204.94537 179.03662a4.91735 4.91735 0 012.26767-2.46321 3.46111 3.46111 0 011.69958-.32876 3.361 3.361 0 011.59821.55176 5.19943 5.19943 0 00-1.60378-.21917 3.53084 3.53084 0 00-1.50674.38539 5.52838 5.52838 0 00-1.315.89145A10.5094 10.5094 0 00204.94537 179.03662zM214.357 175.83658a4.91756 4.91756 0 012.26767-2.46321 3.461 3.461 0 011.69959-.32875 3.36092 3.36092 0 011.5982.55176 5.19869 5.19869 0 00-1.60376-.21916 3.53049 3.53049 0 00-1.50676.38539 5.52863 5.52863 0 00-1.315.89145A10.51189 10.51189 0 00214.357 175.83658z"/><path fill="#dd765e" d="M196.49987,179.03662a2.18165,2.18165,0,0,1,.18564-1.16549.95692.95692,0,0,1,1.15526-.52907,2.40591,2.40591,0,0,1,.984.72084,4.33712,4.33712,0,0,1,.633.97372c-.313-.23585-.57214-.50868-.86458-.73494a2.55762,2.55762,0,0,0-.87439-.54527.599.599,0,0,0-.7491.2847A4.224,4.224,0,0,0,196.49987,179.03662Z"/><path fill="#dd765e" d="M198.71827,181.52745a4.56929,4.56929,0,0,0-.1259-1.04974,6.45393,6.45393,0,0,0-.29778-.99492c-.20765-.66637-.53094-1.28854-.78118-1.98343a4.5151,4.5151,0,0,1,.701.84766,5.84951,5.84951,0,0,1,.48793.99325A2.93831,2.93831,0,0,1,198.71827,181.52745Z"/><circle cx="198.789" cy="183.973" r="1.925" fill="#ffcb33"/><path fill="#dd2f22" d="M210.78326,186.27561s6.03365,2.05016,8.15417-2.30252"/><path fill="#f73c4f" d="M235.14977,258.80445s-9.89847,2.25663-19.304.71269c-10.0455-1.64761-21.46429-7.85678-20.48293-7.85713,7.00545-9.80753,1.44836-22.88487,1.44836-22.88487-1.43567-.12964-1.67786-22.96665-1.67786-22.96665l8.48008-4.99478a4.70609,4.70609,0,0,0,2.18383-5.16326s13.51792-3.10054,14.18822-2.09293a8.36438,8.36438,0,0,0,1.79895,1.894c.14269.11254.29408.22065.44542.32876,5.05517,3.56317,14.1234,3.88328,14.1234,3.88328l3.73621,19.9265C244.75982,233.28976,235.14977,258.80445,235.14977,258.80445Z"/><path fill="#b02336" d="M199.77935 228.20468c5.12709 4.7741 14.68105 2.6984 16.5463-.83028M221.95741 225.90654s10.34822 6.76088 15.9526-4.60355M207.58634 196.706a5.18378 5.18378 0 011.05173 2.13556 5.1262 5.1262 0 01.08246 2.37909 5.12623 5.12623 0 01-1.05173-2.13556A5.18388 5.18388 0 01207.58634 196.706zM209.64906 195.84124a5.18379 5.18379 0 011.05174 2.13557 5.12612 5.12612 0 01.08246 2.37907 5.1262 5.1262 0 01-1.05175-2.13557A5.18407 5.18407 0 01209.64906 195.84124zM211.59473 195.84124a5.18393 5.18393 0 011.05175 2.13557 5.12612 5.12612 0 01.08246 2.37907 5.1262 5.1262 0 01-1.05175-2.13557A5.18379 5.18379 0 01211.59473 195.84124zM213.538 194.74958a5.18375 5.18375 0 011.05174 2.13556 5.126 5.126 0 01.08246 2.37907 5.12626 5.12626 0 01-1.05174-2.13556A5.18381 5.18381 0 01213.538 194.74958zM215.62032 194.74958a5.1839 5.1839 0 011.05175 2.13556 5.12638 5.12638 0 01.08244 2.37907 5.12636 5.12636 0 01-1.05173-2.13556A5.18381 5.18381 0 01215.62032 194.74958zM217.47961 193.81774a5.18371 5.18371 0 011.05172 2.13556 5.126 5.126 0 01.08246 2.37907 5.12632 5.12632 0 01-1.05174-2.13556A5.184 5.184 0 01217.47961 193.81774zM219.40905 194.74958a5.18387 5.18387 0 011.05174 2.13556 5.12624 5.12624 0 01.08245 2.37907 5.12612 5.12612 0 01-1.05173-2.13556A5.18367 5.18367 0 01219.40905 194.74958zM220.47416 248.46343c2.06786-1.01407 4.16753-1.833 6.23621-2.71109 1.0339-.43454 2.0603-.88007 3.06214-1.36463a8.40054 8.40054 0 002.72519-1.88232 5.62714 5.62714 0 01-2.33393 2.55749 19.54306 19.54306 0 01-3.06559 1.61054A25.01172 25.01172 0 01220.47416 248.46343zM221.5639 250.44493c1.61654-.40121 3.19148-.626 4.75569-.916a39.34715 39.34715 0 004.67178-1.06546 6.53026 6.53026 0 01-2.10109 1.35476 11.71416 11.71416 0 01-2.3949.69449 14.1234 14.1234 0 01-2.4673.209A10.04 10.04 0 01221.5639 250.44493z"/><path fill="#160b07" d="M207.55294,162.09377c-1.236.62374-1.72343,1.79964-2.6984,4.15138-1.88328,4.5428-2.28114,10.27185-3.99571,11.67579a1.22863,1.22863,0,0,1-.6746.31135c-.78426.06825-1.3217-.84139-2.49084-2.02383-.88353-.89359-1.203-1.00767-1.71246-1.50487a8.67257,8.67257,0,0,1-2.17947-7.52436,9.1886,9.1886,0,0,1,3.89193-5.50064c3.96866-2.93415,8.62641-2.29072,9.80766-2.12755,7.09683.98037,11.39383,6.76173,11.20878,7.00545C218.4923,166.843,211.67239,160.01488,207.55294,162.09377Z"/><path fill="#f73c4f" d="M204.35794 169.30688a.49819.49819 0 01-.31836-.11523c-3.43945-2.85059-4.67822-3.17871-4.69043-3.18164a.50564.50564 0 01-.37451-.59473.49589.49589 0 01.5791-.38379c.13867.02637 1.45947.35254 5.12354 3.39063a.49979.49979 0 01-.31934.88476zM203.689 172.59106a.49816.49816 0 01-.31835-.11523c-3.43946-2.85059-4.67774-3.17774-4.69-3.18067a.50554.50554 0 01-.37451-.59472.49386.49386 0 01.5791-.38379c.13819.02636 1.4585.35156 5.12305 3.38965a.49979.49979 0 01-.31934.88476z"/><path fill="#4f66d0" d="M202.55962 159.05326a12.7509 12.7509 0 00-1.5343.74583c-4.65433 2.66336-6.92262 7.9166-5.10544 12.38981l1.85926 4.57682-2.171.882-1.85927-4.57682c-2.18123-5.36938.4969-11.6665 6.02723-14.91757C200.4094 157.781 208.22517 156.75171 202.55962 159.05326zM209.00309 190.23589c-3.93725.84408-8.50435-3.01211-8.69691-3.177l.40948-.47859c.04478.03828 4.524 3.81789 8.15542 3.03959z"/><path fill="#a2aee6" d="M201.26721,188.46388l-.07592.03084-4.81075-11.84228.00147.00168.07592-.03084a3.15255,3.15255,0,0,1,4.10577,1.73361l2.43859,6.00289a3.15256,3.15256,0,0,1-1.73361,4.10577l-.07592.03084"/><path fill="#4f66d0" d="M201.34828,188.431l-.07591.03083-4.81075-11.84227.00147.00167-.07592.03084a3.15256,3.15256,0,0,0-1.73361,4.10577l2.43859,6.00289a3.15256,3.15256,0,0,0,4.10578,1.73361l.07591-.03083.07591-.03084"/><path fill="#a2aee6" d="M212.35374,190.63137a5.35211,5.35211,0,0,1-3.10022.26089,1.26047,1.26047,0,0,1,.6153-2.44467A2.64927,2.64927,0,0,0,212.6,187.29624a1.26051,1.26051,0,1,1,2.06333,1.44853A5.18553,5.18553,0,0,1,212.35374,190.63137Z"/><path fill="#e5e1e5" d="M296.98659,263.52141l-59.3051-2.16641,16.2679-43.87146,58.39229,2.13306a2,2,0,0,1,1.80222,2.694l-14.64439,39.49319A2.59373,2.59373,0,0,1,296.98659,263.52141Z"/><path fill="#baafb9" d="M254.2318,217.49392a2.1852,2.1852,0,0,0-2.07006,1.47106l-14.123,37.74468-37.894-1.38427a2.42683,2.42683,0,0,0-2.40933,1.5573,2.33182,2.33182,0,0,0,2.13167,3.09094l38.92024,1.42175a2,2,0,0,0,1.939-1.279l15.35415-39.809A2.07024,2.07024,0,0,0,254.2318,217.49392Z"/><path fill="#935b50" d="M205.01423 258.4781l-2.97244-.10858a.6453.6453 0 01.04711-1.28974l2.97245.10858a.6453.6453 0 11-.04712 1.28974zM217.91161 258.94924l-2.97244-.10858a.6453.6453 0 01.04711-1.28974l2.97245.10859a.6453.6453 0 11-.04712 1.28973z"/><ellipse cx="276.369" cy="241.207" fill="#9e9797" rx="1.704" ry="6.892" transform="rotate(-87.908 276.369 241.207)"/><path fill="#f9977a" d="M177,258.43779c9.0718,3.3598,26.72756,8.8081,36.03229,8.078l-.73074-8.84076s-12.40033-2.18357-28.16031-10.36765C183.23536,246.83694,173.52074,257.14922,177,258.43779Z"/><path fill="#f9977a" d="M213.03229,266.51577s10.33268,1.978,17.73053-.659a3.23734,3.23734,0,0,0,1.92136-1.82092l.99315-2.43805a3.20024,3.20024,0,0,0-1.53236-4.06956h0a3.19254,3.19254,0,0,0-1.7874-.31809c-2.44506.27528-8.86647.95874-9.3305.59889,0,0,3.211-1.51563,3.73236-2.95s-9.77193.49915-12.45788,2.816Z"/><path fill="#dd765e" d="M216.6034 257.92464a6.60894 6.60894 0 012.19949-.46463 5.24948 5.24948 0 012.22417.34906c-.75793.0397-1.47409.02924-2.20637.08252C218.08845 257.89922 217.36222 257.96593 216.6034 257.92464zM224.4298 259.8568c1.45505-.22974 2.90532-.36939 4.33959-.6106.72035-.09661 1.43061-.24 2.13539-.39923a6.10905 6.10905 0 002.01356-.77551 4.45815 4.45815 0 01-1.92212 1.09531 16.19815 16.19815 0 01-2.16056.50625A20.24539 20.24539 0 01224.4298 259.8568zM224.88427 262.57326c1.49672-.40024 3.01138-.65964 4.51694-.96588l2.2637-.41632a16.75318 16.75318 0 002.23732-.52414 8.35039 8.35039 0 01-2.162.84811c-.7458.21061-1.5045.356-2.25952.51691A33.7028 33.7028 0 01224.88427 262.57326zM225.05587 264.8077c1.30986-.28528 2.62854-.42527 3.93983-.61768.65943-.06583 1.314-.1615 1.96892-.24551.32877-.03708.65454-.0875.97837-.14572a2.94363 2.94363 0 00.94584-.26529 4.63762 4.63762 0 01-1.86438.73822c-.653.15365-1.3148.24679-1.97421.34677A24.96493 24.96493 0 01225.05587 264.8077z"/><path fill="#8b9d36" d="M27.68805,297.44813c2.41169,1.874,6.66064,6.32428,6.77527,9.662,0,0,7.80886-8.49083,5.58875-15.75216a13.56165,13.56165,0,0,0-6.20117-6.24613s3.06211-1.7178,6.27749,2.49855c0,0-1.14822-11.39937-17.03351-7.26134,0,0-6.20117-12.64855-18.48825-.70275,0,0,8.268-1.054,6.66033,1.52258a24.03343,24.03343,0,0,0-8.249,4.16424,8.26516,8.26516,0,0,0-2.77522,5.77116c-.19126,3.08407-.4847,9.18707.115,9.27174.80369.11707,6.08622-4.68464,9.64612-4.33326s-8.15338,10.89168-8.15338,10.89168,2.41169,9.13512,3.44527,9.01805c1.03327-.11707,4.78474-2.73269,3.25338,0l-2.641,2.10809,3.445,4.76279,8.65085-3.82589s-3.82779-10.46231-.30621-7.61255c0,0,2.67927,3.55267,2.71759,6.2072,0,0,11.579-5.036,10.43081-8.491a77.60576,77.60576,0,0,0-4.37636-9.3367,3.94806,3.94806,0,0,1-.47848-1.65268C25.953,297.23337,26.18254,296.27693,27.68805,297.44813Zm-1.42265-12.128c1.08466-.74834,3.75147-.26686,4.753,2.17307,1.07189,2.6091,1.027,5.51748-.05732,6.26566-1.08467.74834-4.16609-.22763-4.938-2.75223C25.16827,288.19594,25.181,286.06831,26.2654,285.32012Z"/><path fill="#5e7c24" d="M23.09479,280.34911a42.86886,42.86886,0,0,0-3.41749,4.4433,26.03514,26.03514,0,0,0-2.42194,5.01458c-.63109,1.74936-1.13914,3.54361-1.59518,5.35822-.462,1.81592-.90331,3.62988-1.27119,5.46185-.38984,1.82679-.73048,3.66562-1.00943,5.51181-.28724,1.84632-.45249,3.704-.67936,5.571a31.14339,31.14339,0,0,1-3.30139,10.74063,37.45345,37.45345,0,0,0,1.83373-5.29852,29.87267,29.87267,0,0,0,.97486-5.49463A87.05718,87.05718,0,0,1,13.759,300.49559c.38936-1.84011.85353-3.66522,1.33467-5.47744a44.89586,44.89586,0,0,1,1.70107-5.38785,26.10655,26.10655,0,0,1,2.62149-5.01236A37.15247,37.15247,0,0,1,23.09479,280.34911Z"/><path fill="#5e7c24" d="M18.58546 286.30046a26.646 26.646 0 00-3.71708 1.07035c-1.20807.43921-2.40216.91537-3.56094 1.47232-2.35019 1.04944-4.57934 2.34-6.854 3.608.49664-.421 1.01509-.81464 1.52924-1.217.53825-.36542 1.06828-.747 1.6193-1.09641a33.56886 33.56886 0 013.43685-1.87939 28.11693 28.11693 0 013.68043-1.35776A14.54258 14.54258 0 0118.58546 286.30046zM13.35179 304.41344c-.88964.68985-1.81577 1.25439-2.72022 1.84363q-.67988.4362-1.32793.90115a3.64574 3.64574 0 00-1.099 1.1427 2.39913 2.39913 0 01.76337-1.51706 7.73889 7.73889 0 011.3138-1.06741A9.47466 9.47466 0 0113.35179 304.41344zM15.12544 296.07112a30.58879 30.58879 0 012.92624 3.15625A37.07 37.07 0 0120.57 302.73015a24.75422 24.75422 0 011.96583 3.85477 11.73541 11.73541 0 01.90344 4.21451 16.60972 16.60972 0 00-1.359-4.01944 30.62883 30.62883 0 00-2.05654-3.70972c-.722-1.22086-1.5446-2.381-2.36467-3.54419C16.8361 298.36415 15.98639 297.21849 15.12544 296.07112z"/><path fill="#8b9d36" d="M4.53,332.66119l3.21535,2.96695s3.13879-3.3183,3.48329-1.015c0,0-.49761,2.3033-1.11006,2.49849,0,0,7.69387,6.18766,9.24413,1.09309a49.14282,49.14282,0,0,1,2.3541-6.67565s1.7225.93693.22966,8.31528c0,0,5.95438-1.74977,8.16551-4.95984a2.29627,2.29627,0,0,0,.389-1.28081c.0213-1.83519.26318-7.00034,2.35476-5.0611,0,0,1.20576.58558.28709,4.509,0,0,4.84585-5.46308,2.54407-8.8208a3.35735,3.35735,0,0,0-4.11677-1.08625c-1.34571.58416-3.84261,1.66-8.47527,3.64131A92.45638,92.45638,0,0,1,4.53,332.66119Z"/><path fill="#5e7c24" d="M15.12544 337.18969a18.36235 18.36235 0 011.58279-4.86585 11.82854 11.82854 0 011.35952-2.20279 5.26166 5.26166 0 01.93386-.9266 1.958 1.958 0 011.22321-.43714 3.518 3.518 0 00-1.7493 1.65781 22.36435 22.36435 0 00-1.18881 2.1915C16.54752 334.10945 15.88913 335.65779 15.12544 337.18969zM25.58286 334.76928a15.27667 15.27667 0 01.40767-4.49891 11.53756 11.53756 0 01.7517-2.15829 3.38712 3.38712 0 011.52009-1.69711 4.61121 4.61121 0 00-1.05595 1.89035c-.22446.69433-.41724 1.401-.59008 2.11682C26.26772 331.85558 25.97846 333.30794 25.58286 334.76928zM79.09546 281.58192s-7.73215 1.10951-.84212 6.575c0 0 1.76079 1.48348 7.50248 3.20119C85.75582 291.35806 89.354 275.70966 79.09546 281.58192z"/><path fill="#50661a" d="M85.75582,291.35805c-.14316-.51248-.23695-1.02582-.36581-1.53024-.161-.4964-.27727-1.00153-.45346-1.48541a14.39184,14.39184,0,0,0-1.29285-2.77277,10.90627,10.90627,0,0,0-1.94941-2.32657,9.24709,9.24709,0,0,0-2.59883-1.66113,6.54176,6.54176,0,0,1,2.91476,1.27,8.85,8.85,0,0,1,2.18027,2.37765,10.778,10.778,0,0,1,1.22636,2.97083c.14034.51526.1931,1.05.28206,1.57116C85.72488,290.30358,85.75713,290.83181,85.75582,291.35805Z"/><path fill="#5e7c24" d="M69.2825,249.96611s8.5723-5.46149,11.13986,6.66537c0,0-4.44872-3.82925-4.50765-1.61407a16.97938,16.97938,0,0,1,3.227,5.74969,6.29573,6.29573,0,0,1-.62009,4.64846c-1.08966,1.98313-3.29121,5.87839-3.67815,5.702-.51807-.23613-1.75194-5.24254-3.981-6.392s.54852,9.88543.54852,9.88543-4.97627,4.73833-5.53806,4.26875-1.74836-3.5309-1.91269-1.249l.73144,2.321-3.88026,1.63013-3.59384-5.695s6.32577-5.0174,3.14577-4.60284c0,0-2.95883,1.17373-4.01556,2.80514,0,0-4.84338-7.57015-2.82246-9.27145a57.35908,57.35908,0,0,1,6.19441-4.1011,2.90273,2.90273,0,0,0,1.054-1.02848c.285-.49106.34055-1.0144-.85243-.88344-2.14735.23573-6.37838,1.36346-7.74625,3.38909,0,0-1.28141-8.26435,2.85233-11.91423a9.54562,9.54562,0,0,1,6.078-1.49146s-1.13056-2.2413-4.66291-.86186C56.44239,247.92628,61.55838,241.29875,69.2825,249.96611Z"/><path fill="#50661a" d="M73.12409 263.54265c-.69961-1.70523-1.35607-3.395-2.15395-5.00668a14.56338 14.56338 0 00-1.387-2.27509 3.532 3.532 0 00-2.13543-1.47528 3.117 3.117 0 012.51205 1.14224 9.915 9.915 0 011.58607 2.31968A16.58367 16.58367 0 0173.12409 263.54265zM55.51623 267.62242a12.88707 12.88707 0 011.63863-2.65026 12.30785 12.30785 0 012.22362-2.222 8.17573 8.17573 0 012.82217-1.44873 5.43614 5.43614 0 013.12468.1012 7.11541 7.11541 0 00-2.97472.37866 9.89041 9.89041 0 00-2.58085 1.48025 17.91088 17.91088 0 00-2.23613 2.03827C56.83969 266.04265 56.15761 266.80837 55.51623 267.62242z"/><path fill="#50661a" d="M63.5546,251.06993a3.96843,3.96843,0,0,1,2.64675-1.555,6.21935,6.21935,0,0,1,1.5847-.04233,8.87115,8.87115,0,0,1,1.5525.31949l.1885.05292-.07695.19437c-1.00143,2.52938-1.85223,5.12783-2.69246,7.7203-.82221,2.6008-1.56291,5.22608-2.28809,7.85581q-1.04584,3.95594-1.95788,7.94824c-.61168,2.661-1.14969,5.33819-1.7003,8.01825.33645-2.71387.74069-5.4227,1.27059-8.10828.48195-2.696,1.13615-5.35663,1.8-8.013.66969-2.65594,1.465-5.279,2.32125-7.88055.85093-2.60474,1.8044-5.17209,2.91157-7.687l.11144.247-.73159-.218c-.24888-.04709-.49636-.10929-.74668-.15042a5.96644,5.96644,0,0,0-1.51795-.04923A4.00738,4.00738,0,0,0,63.5546,251.06993Z"/><path fill="#50661a" d="M66.20483,274.51335a14.19827,14.19827,0,0,0-1.0269-2.70715,2.43721,2.43721,0,0,0-.8785-.94659,2.98448,2.98448,0,0,0-1.37163-.25543,2.02034,2.02034,0,0,1,1.565-.20865,2.336,2.336,0,0,1,1.24155,1.08661A4.54588,4.54588,0,0,1,66.20483,274.51335Z"/><path fill="#c4ce6e" d="M37.60214,337.1897s-1.52394-5.26049-5.39241-2.28652a7.76324,7.76324,0,0,0-2.68086,4.113c-.69767,2.51767-1.30073,7.08012.41768,13.55487,0,0,3.96024-5.47889,6.89-7.41738C40.14072,342.96745,42.27205,337.97047,37.60214,337.1897Z"/><path fill="#8b9d36" d="M37.60214 337.18969a6.63045 6.63045 0 00-1.50247 1.54556 15.12506 15.12506 0 00-1.18489 1.80148 34.45947 34.45947 0 00-1.90691 3.87933c-.58435 1.32239-1.08819 2.68015-1.5885 4.04236L29.94655 352.571c.12577-.72.29221-1.43066.43762-2.14828.1681-.71109.37729-1.4115.56444-2.11923.40668-1.406.92142-2.77927 1.468-4.14151a27.31373 27.31373 0 012.08018-3.8873A8.81781 8.81781 0 0137.60214 337.18969zM43.18552 264.11525s.12905-5.48371-4.44661-3.861a7.62961 7.62961 0 00-3.78718 3.0779c-1.42021 2.17875-3.36442 6.33357-3.673 13.03393 0 0 5.41527-3.97855 8.78641-4.90872C43.867 270.4083 47.39653 266.31722 43.18552 264.11525z"/><path fill="#5e7c24" d="M43.18552,264.11525a6.51822,6.51822,0,0,0-1.89524,1.00138,14.85431,14.85431,0,0,0-1.67,1.345,33.87871,33.87871,0,0,0-2.98087,3.09775c-.95312,1.07669-1.84033,2.21145-2.72516,3.35189L31.27872,276.366c.3356-.645.70716-1.2688,1.06077-1.90558.37317-.62378.78258-1.22473,1.173-1.83942a43.36721,43.36721,0,0,1,2.64071-3.48334,26.89824,26.89824,0,0,1,3.14906-3.05325A8.67657,8.67657,0,0,1,43.18552,264.11525Z"/><path fill="#8b9d36" d="M77.72011,337.1897s1.52394-5.26049,5.39241-2.28652a7.76332,7.76332,0,0,1,2.68087,4.113c.69766,2.51767,1.30072,7.08012-.41769,13.55487,0,0-3.96024-5.47889-6.89-7.41738C75.18154,342.96745,73.0502,337.97047,77.72011,337.1897Z"/><path fill="#5e7c24" d="M77.72011,337.18969a8.81784,8.81784,0,0,1,3.10535,3.085,27.31361,27.31361,0,0,1,2.08016,3.8873c.54661,1.36224,1.06134,2.73547,1.468,4.14151.18715.70773.39634,1.40814.56444,2.11923.14541.71762.31184,1.42831.43762,2.14828l-1.47281-4.11258c-.50032-1.36221-1.00415-2.72-1.58851-4.04236a34.46111,34.46111,0,0,0-1.9069-3.87933,15.12636,15.12636,0,0,0-1.1849-1.80148A6.63065,6.63065,0,0,0,77.72011,337.18969Z"/><path fill="none" stroke="#50661a" stroke-miterlimit="10" stroke-width=".644" d="M79.09546 281.58192s-19.26145-16.458-24.25291 79.69476M60.81137 281.58192s-9.58227 63.41555-3.84058 79.69476M53.31765 361.27668s-7.12112-28.57719-15.71551-24.087M54.341 352.75463s6.20629-106.17218-11.15547-88.63938M62.0046 361.27668s7.12112-28.57719 15.71551-24.087M35.14638 323.63159S48.6262 320.3249 55.97557 360.613M39.58689 298.66838s3.90541 2.60555 18.683 61.94464M76.49984 312.13123s-14.59619 23.10652-15.95256 49.14545"/><path fill="#d6694b" d="M37.6787,354.45641v5.34632a1.85289,1.85289,0,0,0,1.83438,1.87085H76.26584a1.85289,1.85289,0,0,0,1.83439-1.87085v-4.927a1.85338,1.85338,0,0,0-1.81386-1.87073l-36.75277-.41936A1.85239,1.85239,0,0,0,37.6787,354.45641Z"/><polygon fill="#e19974" points="39.433 361.674 40.74 389.268 74.174 389.268 76.346 361.674 39.433 361.674"/><path fill="#5e7c24" d="M70.48286,310.55862c.05109-2.51792,5.257,2.04964,5.257,2.04964-3.10073-13.91745-13.00821-8.11372-13.00821-8.11372-9.05924-10.228-14.94112-2.93427-14.94112-2.93427,4.08915-1.399,5.42271,1.2036,5.42271,1.2036a10.888,10.888,0,0,0-7.04971,1.40535c-4.76543,3.956-3.20229,13.41643-3.20229,13.41643,1.56937-2.23819,6.48153-3.31837,8.96953-3.48738,1.56314-.10421,1.2887.66367.86786,1.24919a3.1611,3.1611,0,0,1-1.06535.91084,62.50825,62.50825,0,0,0-7.17712,4.37885c-2.33506,1.83487,3.36832,10.67723,3.36832,10.67723,1.21207-1.8023,4.638-2.99955,4.638-2.99955,3.69385-.31881-3.611,5.08811-3.611,5.08811l4.22964,6.6496,4.49785-1.67221-.87409-2.67407c.17226-2.58957,1.57591.94992,2.23288,1.50939.657.56614,6.39866-4.58694,6.39866-4.58694s-3.33-12.68764-.7336-11.26927c2.603,1.41186,4.08292,7.16364,4.68912,7.4564.45293.22128,2.973-4.10563,4.22341-6.31125a6.899,6.899,0,0,0,.67628-5.25078A20.51137,20.51137,0,0,0,70.48286,310.55862Zm-14.5265-.104c-1.65877,1.37277-4.21063.61157-4.61871-.40984-.41493-1.015.85478-3.03863,2.7559-4.3269,1.77995-1.21028,3.8278-.30579,4.23618.71578C58.74435,307.44851,57.80017,308.91914,55.95636,310.45458Z"/><path fill="#50661a" d="M62.73016,304.49453a31.0407,31.0407,0,0,1,.64587,4.605,21.60055,21.60055,0,0,1-.414,4.6539,35.91419,35.91419,0,0,1-1.22867,4.5c-.47852,1.47058-.974,2.94345-1.52809,4.39352a70.39019,70.39019,0,0,1-3.9491,8.41791,24.46548,24.46548,0,0,0-1.80358,4.22687,31.47378,31.47378,0,0,0-1.13492,4.4808,25.35493,25.35493,0,0,1,2.49662-8.93207,80.03957,80.03957,0,0,0,3.7908-8.42572c.56755-1.43112,1.07641-2.883,1.57289-4.34588.50021-1.459.9496-2.92694,1.30127-4.41693a21.529,21.529,0,0,0,.58284-4.548A37.12637,37.12637,0,0,0,62.73016,304.49453Z"/><path fill="#50661a" d="M63.16669 310.67766a11.734 11.734 0 012.42842 2.18289 20.69042 20.69042 0 011.93137 2.64191 23.94151 23.94151 0 011.51217 2.8956 21.63715 21.63715 0 011.08335 3.07327l-1.53459-2.85159c-.52257-.93765-1.0407-1.874-1.609-2.77927q-.83769-1.36609-1.7748-2.66751A25.07523 25.07523 0 0063.16669 310.67766zM58.66492 325.54891a7.12083 7.12083 0 011.57834 2.29407 6.12741 6.12741 0 01.4154 1.35321 1.97065 1.97065 0 01-.19677 1.41516 3.29955 3.29955 0 00-.28914-1.28611c-.16653-.40838-.338-.81613-.51939-1.22415A21.12229 21.12229 0 0158.66492 325.54891zM61.17561 318.99572l-3.26992 1.23733c-1.0798.424-2.15471.854-3.20066 1.34119a28.54771 28.54771 0 00-3.06819 1.5802 13.94584 13.94584 0 00-2.7532 2.09 9.12385 9.12385 0 012.47677-2.50991 17.813 17.813 0 013.07831-1.74653A25.31506 25.31506 0 0161.17561 318.99572z"/><path fill="#c4ce6e" d="M93.58425,294.82615s7.46811-11.15591,16.8082,2.01816c0,0-7.31492-2.20689-6.24233.483a21.73677,21.73677,0,0,1,6.84,5.16732,8.22334,8.22334,0,0,1,1.65506,5.91113c-.28407,2.96477-.91553,8.82106-1.47089,8.81715-.74356-.00522-4.80815-5.35061-8.07638-5.53324s5.76035,11.56823,5.76035,11.56823-3.526,8.35757-4.44256,8.09566-3.92045-3.29854-2.93989-.472l2.07564,2.39252-3.815,4.03929-7.252-4.90476s5.00143-9.41695,1.39933-7.2123c0,0-2.94485,2.99695-3.37093,5.522,0,0-9.71929-6.48415-8.17222-9.61067a76.81973,76.81973,0,0,1,5.30666-8.23289,3.94131,3.94131,0,0,0,.74055-1.78611c.09694-.75348-.09437-1.438-1.47542-.63038-2.45521,1.43568-6.95046,5.06039-7.54646,8.22553,0,0-5.80315-9.22946-2.72638-15.82856a12.74919,12.74919,0,0,1,6.52392-5.05274s-2.51348-2.08266-6.0404,1.469C77.12308,299.2715,79.84173,288.57184,93.58425,294.82615Z"/><path fill="#8b9d36" d="M93.58425,294.82616a80.78634,80.78634,0,0,1,3.23013,10.30765c.8761,3.49734,1.55412,7.04382,2.08511,10.61081a106.33865,106.33865,0,0,1,1.0014,10.76751,92.55863,92.55863,0,0,1-.16445,10.80127c-.02833-3.60034-.04647-7.19308-.3304-10.77429q-.34044-5.37345-1.14337-10.70187c-.47524-3.55753-1.15925-7.084-1.92849-10.59043C95.56039,301.7408,94.66792,298.258,93.58425,294.82616Z"/><path fill="#8b9d36" d="M95.44827 300.76442a17.16739 17.16739 0 00-1.61391 2.395 26.06207 26.06207 0 00-1.267 2.56851c-.37629.87833-.7038 1.778-1.00713 2.69056-.30021.914-.56869 1.84137-.8543 2.77969a15.35066 15.35066 0 01.36966-2.91345 16.61429 16.61429 0 01.89981-2.81009 14.61335 14.61335 0 011.43683-2.58478A8.81556 8.81556 0 0195.44827 300.76442zM98.55563 315.54039a7.37959 7.37959 0 014.75369 3.48172 6.044 6.044 0 01.71737 1.872 16.40419 16.40419 0 00-2.41341-2.99988A18.27267 18.27267 0 0098.55563 315.54039z"/><path fill="#935b50" d="M503.64,391.10782H7.64a1,1,0,1,1,0-2h496a1,1,0,0,1,0,2Z"/><path fill="#c0d6f2" d="M210.54891,379.8378H170.188V253.0496h20.3406c11.05689,0,20.02028,8.34289,20.02028,18.63436V379.8378Z"/><path fill="none" stroke="#8b9d36" stroke-linecap="round" stroke-linejoin="round" stroke-width="2.447" d="M425.61916,104.30545s19.21106,14.1601,25.49465,12.53759"/><line x1="446.991" x2="449.945" y1="77.382" y2="117.876" fill="none" stroke="#8b9d36" stroke-linecap="round" stroke-linejoin="round" stroke-width="2.447"/><path fill="none" stroke="#8b9d36" stroke-linecap="round" stroke-linejoin="round" stroke-width="2.447" d="M462.36581,118.9514s3.18391-17.96491,19.85819-25.74549"/><path fill="#5e7c24" d="M460.90442 114.778c-.99478-1.94819-6.34057-1.95089-9.75419.44264a9.34792 9.34792 0 00-3.28786 4.31442c-.58123 1.49715-1.51149 3.89278-.21911 5.53128 1.05244 1.33421 3.22929 1.72373 5.37016.99541a26.17587 26.17587 0 004.60313-4.53559C459.59688 119.01891 461.70624 116.34839 460.90442 114.778zM465.06932 114.55685c-.37252.97829.36657 2.09974 1.75349 4.20368a20.19689 20.19689 0 004.82224 5.08895 5.75328 5.75328 0 006.79513.77424 5.50414 5.50414 0 002.52053-4.64632c-.02259-2.86617-2.47147-4.63972-3.39727-5.31012C473.07983 111.42 465.97015 112.19212 465.06932 114.55685zM478.22078 96.193c.32673-.557 1.17345-.274 3.06875-.55337 1.50345-.22176 1.5311-.48254 4.71283-1.438a18.137 18.137 0 014.0552-.9957c.57439.0027 3.82093.01741 4.93165 2.21258 1.16364 2.2996-.99061 5.06764-1.09586 5.19938-2.0826 2.6021-5.64071 2.47516-6.79513 2.43375a10.49087 10.49087 0 01-7.34307-3.53988C479.49531 99.221 477.65323 97.15994 478.22078 96.193zM448.30089 85.46207c-1.1568-.58248-.47985-4.28321-.10971-6.30553a37.53522 37.53522 0 012.08231-6.30582c1.91789-5.05294 2.35552-5.59731 3.06875-5.86289 1.669-.62179 4.12566.55067 5.04165 2.323 1.268 2.45355-.67577 5.55529-2.73994 8.85C453.66154 81.32471 449.80553 86.2195 448.30089 85.46207z"/><path fill="#c4ce6e" d="M447.86237,95.19734c.85088-1.38462-.71472-4.09235-2.30142-5.53129-1.33191-1.20787-2.69474-1.53617-5.04165-2.10184-2.63588-.63529-5.53725-1.33451-6.35661-.11073-.78131,1.16675.74712,3.45885,1.09615,3.98251a9.68852,9.68852,0,0,0,4.49342,3.42945C442.09411,95.83473,446.76443,96.98378,447.86237,95.19734Z"/><path fill="#5e7c24" d="M447.97207 105.928c.03122-1.10163-1.56143-1.33-4.82224-3.98251-2.58861-2.10574-2.66234-2.838-4.1649-3.31872-2.30023-.73582-5.303-.03511-5.80869 1.438-.12368.36071-.10614.79135 1.86319 3.98252 1.532 2.48236 2.31331 3.73314 3.06875 4.20368a7.20026 7.20026 0 005.47987.55307C444.96367 108.47849 447.92985 107.421 447.97207 105.928zM449.17057 93.19555c-1.07415-1.21625.00668-4.15545 1.32452-5.84843 1.10622-1.42112 2.39279-1.98115 4.60832-2.94587 2.48833-1.08348 5.2273-2.276 6.243-1.21275.96849 1.01371-.14655 3.537-.40115 4.11348a9.73384 9.73384 0 01-3.842 4.1585C454.96147 92.82193 450.55658 94.76474 449.17057 93.19555zM449.96537 104.62754c-.21848-1.0798 1.31151-1.58129 4.07169-4.76042 2.19119-2.52381 2.139-3.25792 3.53728-3.99238 2.14055-1.12423 5.218-.95532 5.96717.40807.18331.33386.23941.76112-1.15675 4.24665-1.08614 2.71135-1.64266 4.07915-2.30665 4.67384a7.21081 7.21081 0 01-5.30395 1.49627C453.36356 106.61767 450.26138 106.09091 449.96537 104.62754zM432.4092 110.35286c-.15371-1.20036-2.13047-1.863-4.49342-2.65491-2.13493-.71542-3.82985-1.28379-5.80869-.6638-.34993.10953-3.46268 1.08453-3.72639 3.42945-.23665 2.10334 2.00739 3.63891 2.192 3.76134 1.80373 1.19707 3.82093.809 5.15106.55307C428.8056 114.185 432.63545 112.1186 432.4092 110.35286z"/><path fill="#c4ce6e" d="M441.28664,115.88415c-1.65032-1.17756-4.76516.81985-6.24721,1.77024a13.10155,13.10155,0,0,0-3.83579,3.761c-1.14164,1.71322-2.228,3.34392-1.64408,4.757.83958,2.03132,4.464,2.001,4.93194,1.99111a7.8824,7.8824,0,0,0,5.37017-2.43374,8.38464,8.38464,0,0,0,2.0826-4.20369C442.14376,120.60579,442.91526,117.04641,441.28664,115.88415Z"/><path fill="#8b9d36" d="M428.13489 104.60041c-.92848-1.35011-.60323-2.30711-.98645-4.64632-.60917-3.71873-1.90511-4.195-1.42467-6.08436.37817-1.487 1.65954-3.07413 3.06875-3.09754 1.97379-.033 3.24357 3.01772 3.507 3.65061.95791 2.3011.60472 4.30722 0 7.74387-.39481 2.24348-.696 3.84957-1.64378 4.09324C429.73943 106.49549 428.64863 105.34734 428.13489 104.60041zM470.11067 104.26851c.29284-.82856 1.84506-.954 3.72639-1.10614 2.35047-.19 4.11228-.3325 5.80868.77424.261.17015 3.00751 2.01361 2.52053 4.204-.38055 1.71142-2.50715 2.60929-4.0549 2.65491-1.67946.04951-2.8214-.9-4.932-2.65491C471.51661 106.75807 469.75 105.28882 470.11067 104.26851z"/><path fill="#5e7c24" d="M472.85061,97.963c-.42187-.096-.448-.68361-.98645-2.32331-1.20318-3.66321-2.145-3.996-1.9726-5.53128.19087-1.69852,1.59265-3.50717,2.84934-3.42945,1.37.08462,2.18934,2.38723,2.52083,3.319a7.17692,7.17692,0,0,1,.43852,3.42945C475.39284,95.80562,473.76541,98.17155,472.85061,97.963Z"/><path fill="#8b9d36" d="M445.67036,82.03292c-.6395.90688-4.27045-.16715-6.68543-2.32331-.61661-.55037-3.34554-2.98711-2.63023-5.31012a2.7367,2.7367,0,0,1,2.192-1.99111c1.02391-.0252,1.68957,1.01491,3.39757,3.53988C445.4563,81.14105,445.95071,81.6353,445.67036,82.03292Z"/><path fill="#c4ce6e" d="M465.61725,106.48108c-1.83911.50055-4.24548-3.38353-4.82224-4.31441a14.27186,14.27186,0,0,1-2.192-7.965c.07878-1.75913.22238-4.96651,2.0823-5.75245,1.782-.75293,4.19256,1.11694,5.37017,2.54418,2.32371,2.81575,1.95417,6.45857,1.64408,9.5138C467.45814,102.88749,467.13527,106.06786,465.61725,106.48108Z"/><path fill="#935b50" d="M465.88385,148.7515h-18.0714l-5.81375-30.84381a1.22593,1.22593,0,0,1,1.19629-1.45892h27.30633a1.22593,1.22593,0,0,1,1.19629,1.45892Z"/><path fill="#d6694b" d="M471.27759,120.13631l.42009-2.2286a1.22593,1.22593,0,0,0-1.19629-1.45892H443.195a1.22592,1.22592,0,0,0-1.19628,1.45892l.42008,2.2286Z"/><polygon fill="#d6694b" points="449.257 140.016 445.44 136.163 449.257 132.31 453.074 136.163 449.257 140.016"/><polygon fill="#d6694b" points="456.892 140.016 453.074 136.163 456.892 132.31 460.709 136.163 456.892 140.016"/><polygon fill="#d6694b" points="464.439 140.016 460.622 136.163 464.439 132.31 468.256 136.163 464.439 140.016"/><circle cx="320.318" cy="69.176" r="28.034" fill="#ffba55"/><circle cx="320.318" cy="69.176" r="28.034" fill="none" stroke="#d77f4a" stroke-miterlimit="10" stroke-width="2"/><line x1="320.318" x2="320.318" y1="55.099" y2="73.176" fill="none" stroke="#d77f4a" stroke-linecap="round" stroke-linejoin="round" stroke-width="2"/><line x1="317.115" x2="335.872" y1="67.51" y2="76.916" fill="none" stroke="#d77f4a" stroke-linecap="round" stroke-linejoin="round" stroke-width="2"/></g></g></svg>