<svg xmlns="http://www.w3.org/2000/svg" viewBox="0 0 485.015 456.751"><g data-name="Layer 2"><g data-name="Layer 1"><path fill="#dae0e0" d="M245.92664,40.75463c54.42282,14.69913,77.1767-16.85328,127.10986-6.2168,54.38892,11.58564,84.39089,61.16185,87.24277,66.03218,34.99332,59.75909,33.72652,130.847-9.3595,166.61631-23.91269,19.852-48.09266,19.94448-123.16487,52.57794-56.79663,24.68909-83.58268,54.89533-95.3046,61.52761-59.741,33.80155-128.12722,12.69815-178.39357-28.73252-13.98972-11.53064-81.332-67.6448-41.751-149.32679,12.25716-25.29471,13.421-13.75074,67.721-84.21584C137.21732,44.80026,206.63015,30.14089,245.92664,40.75463Z"/><path fill="#3ca05d" d="M367.2898,405.33909a136.25762,136.25762,0,0,0,28.57012-13.653c.618-.392,9.54707-6.17242,14.6643-15.16994,1.0701-1.88155,2.16154-4.2342,1.51693-6.82646a8.18787,8.18787,0,0,0-6.32082-5.81517c-2.14508-.35528-4.03684.44451-6.57363,1.517-3.06336,1.29514-3.857,2.43211-5.81509,2.27548-1.37119-.10965-3.18544-.84334-3.7925-2.27548-1.1861-2.79785,2.96416-6.54166,3.28677-6.82655,2.64319-2.3343,4.02261-1.51908,8.5963-3.79242a29.41626,29.41626,0,0,0,8.34348-6.32082c2.57058-2.59363,4.02707-4.108,3.79251-6.068a5.60165,5.60165,0,0,0-4.04533-4.29815c-2.65811-.70728-3.85946,1.41354-6.82646.75847-1.74506-.38528-3.76919-1.65762-4.04533-3.28678-.27657-1.63173,1.30432-3.007,3.79251-5.30952,8.9328-8.26641,10.26386-10.62823,10.87179-11.88317.85345-1.76178,2.24471-4.63362,1.26419-7.83775a8.42491,8.42491,0,0,0-5.30952-5.56234c-5.36217-1.5376-12.6232,4.37462-15.42276,10.36614-2.33919,5.00612-3.79251,8.849-3.79251,8.84912a12.552,12.552,0,0,1-3.034,4.8038c-.70034.67308-2.29144,2.2021-3.53969,1.76984-.80416-.27845-.9349-1.187-1.76984-3.28677-1.24619-3.13418-1.86929-4.70127-3.034-5.30953-1.764-.92127-4.50485.27991-6.068,1.76984-2.46118,2.34587-2.49624,5.878-2.5283,9.10195-.02932,2.94685.47023,2.95791,1.01129,8.34348a61.36389,61.36389,0,0,1,.25282,9.102c-.285,5.92551-1.24722,6.76559-1.76984,7.07928-1.27578.76584-2.90356.17927-4.8038-.50564a17.06009,17.06009,0,0,1-6.82646-4.80388c-2.60315-2.8871-2.19327-3.98892-3.79251-5.05662a6.46043,6.46043,0,0,0-4.6265-.80316,12.81009,12.81009,0,0,0-9.27854,6.4166,21.49327,21.49327,0,0,0-1.01207,1.97157c-3.88184,8.63428-.86752,17.31443.75846,21.9964C346.00043,394.09386,362.53418,402.97556,367.2898,405.33909Z"/><path fill="#4fba75" d="M367.2898,405.33909s4.02613-48.75954,43.26043-99.84042l-.00187-.00206a8.803,8.803,0,0,1,4.02425,5.02856c.97622,3.20255-.41436,6.075-1.26416,7.83781-.611,1.25714-1.94541,3.61691-10.8718,11.88313-2.49321,2.30359-4.07342,3.68012-3.79249,5.30949.2739,1.62936,2.29656,2.90055,4.04532,3.28682,2.96376.66018,4.16471-1.46081,6.82648-.7585a5.61387,5.61387,0,0,1,4.04532,4.29816c.23176,1.95945-1.222,3.47645-3.79249,6.068a29.50056,29.50056,0,0,1-8.34347,6.32082c-4.57908,2.27549-5.95562,1.46081-8.59631,3.79249-.32307.28794-4.47374,4.03127-3.28683,6.82648.604,1.43271,2.416,2.17014,3.79249,2.27549,1.95243.16153,2.746-.97622,5.81515-2.27549,2.53535-1.06752,4.42457-1.86816,6.57365-1.517a8.19472,8.19472,0,0,1,6.32081,5.81515c.63911,2.59153-.44948,4.94428-1.517,6.82648-5.11986,8.99663-14.04626,14.77666-14.66429,15.17a136.047,136.047,0,0,1-28.57009,13.653"/><path fill="#4fba75" d="M370.58525 387.41151a38.83924 38.83924 0 01-6.30151-3.36341 37.48971 37.48971 0 01-5.614-4.46417 22.139 22.139 0 01-4.27978-5.77972 14.05634 14.05634 0 01-1.16992-3.41272 12.08407 12.08407 0 01-.12793-3.57593 13.85787 13.85787 0 001.77856 6.74188 23.2237 23.2237 0 004.29273 5.528 42.16818 42.16818 0 005.42382 4.51873A64.79422 64.79422 0 00370.58525 387.41151zM383.90312 349.59333a29.63263 29.63263 0 01-3.26245-3.94443 30.69382 30.69382 0 01-2.61767-4.42077 22.55258 22.55258 0 01-1.72193-4.85724 13.66074 13.66074 0 01-.18432-5.12046 18.50647 18.50647 0 00.70825 4.989 30.82792 30.82792 0 001.83032 4.68417 49.25971 49.25971 0 002.43481 4.43Q382.41729 347.51408 383.90312 349.59333z"/><path fill="#c0e2cc" d="M370.55986 387.14326a64.78882 64.78882 0 007.06885.70929 42.18263 42.18263 0 007.05664-.205 23.22976 23.22976 0 006.79-1.69721 13.8568 13.8568 0 005.562-4.20477 12.07564 12.07564 0 01-2.30884 2.73377 14.052 14.052 0 01-3.02759 1.96185 22.13307 22.13307 0 01-6.9353 1.90326 37.49793 37.49793 0 01-7.17236.04474A38.83536 38.83536 0 01370.55986 387.14326zM383.43755 349.173q2.45324-.71955 4.83081-1.59772a49.29024 49.29024 0 004.65063-1.981 30.82925 30.82925 0 004.332-2.55417 18.50183 18.50183 0 003.63794-3.48676 13.65461 13.65461 0 01-3.30688 3.91376 22.55026 22.55026 0 01-4.35376 2.7572 30.67109 30.67109 0 01-4.78882 1.86078A29.61781 29.61781 0 01383.43755 349.173z"/><path fill="#c0e2cc" d="M367.68779,402.05756c.49609-4.12475,1.29053-8.20886,2.15967-12.273.93725-4.049,1.96094-8.08148,3.15747-12.06341.59546-1.99188,1.16528-3.99274,1.86133-5.95264.686-1.96246,1.28637-3.95605,2.043-5.89331l2.19482-5.83936,2.3938-5.761a215.35492,215.35492,0,0,1,11.19092-22.28336c2.00464-3.64462,4.302-7.11371,6.51928-10.6278,1.08716-1.7717,2.34449-3.43082,3.5337-5.13364l3.60571-5.0806c-4.65845,6.87686-9.20557,13.82742-13.18872,21.10861a228.19463,228.19463,0,0,0-11.0166,22.29407,222.30448,222.30448,0,0,0-8.62232,23.32453c-1.25683,3.95288-2.33374,7.96087-3.33984,11.98565C369.20171,393.893,368.29668,397.94862,367.68779,402.05756Z"/><polygon fill="#601f24" points="348.338 455.686 394.984 455.686 407.483 405.585 335.839 405.585 348.338 455.686"/><rect width="82.996" height="8.487" x="330.163" y="397.407" fill="#7a3c43" rx="4.244" transform="rotate(-180 371.661 401.65)"/><polygon fill="#104f54" points="214.393 354.822 244.935 423.815 227.407 431.517 196.599 379.462 214.393 354.822"/><path fill="#0a3e3f" d="M214.39307,354.82182,196.5985,379.46235l6.60616,11.16192c8.17229-14.516,10.02387-28.90758,11.86287-34.27871Z"/><path fill="#f6b98a" d="M176.35505,294.27337s24.67,27.46816,28.74234,26.14023c0,0,1.26892,4.6035,34.08361-19.59439,0,0,3.71822,5.38551,8.67583,2.10994l9.38406-5.57732s5.13468,7.52495,7.17084,5.88717c0,0,.6197-4.95762-10.75626-16.33357,0,0-.22132-1.63779-15.8024,5.26746a93.08159,93.08159,0,0,1-30.808,7.43643s-7.87011-6.10849-14.16014-18.76812Z"/><path fill="#104f54" d="M162.1609,336.52585s60.1406-10.21033,53.76652,16.34833c0,0-5.25271,25.52582-44.29394,78.64314l-15.404-7.17084s22.3978-45.85795,23.81426-58.78316l-16.82048.35411Z"/><path fill="#4fba75" d="M88.25865,322.87651l-16.95894-1.13465a3.91752,3.91752,0,0,1-3.60248-3.3106l-6.13738-39.165a3.936,3.936,0,0,1,3.1366-4.48041l17.05367-3.26247a3.91215,3.91215,0,0,1,4.60385,3.31879l6.04265,43.56211A3.92878,3.92878,0,0,1,88.25865,322.87651Z"/><polygon fill="#874106" points="83.459 455.553 78.014 455.553 107.745 380.259 118.428 380.259 83.459 455.553"/><polygon fill="#874106" points="154.328 455.63 119.785 380.259 130.468 380.259 160.272 455.63 154.328 455.63"/><rect width="139.964" height="10.446" x="232.984" y="326.079" fill="#874106"/><polygon fill="#874106" points="355.951 455.686 349.881 455.686 337.094 336.526 355.951 336.526 355.951 455.686"/><path fill="#f6b98a" d="M156.22946 424.34648s-12.92233 25.33693-10.91568 27.57966l19.87113.35512 2.34674-6.74687-8.61681-2.47881 6.7-14.34006zM228.98329 430.82456s7.70309 18.15063 8.17524 20.98355H254.218l-1.81664-9.34272s-5.75153 1.62848-13.61726-15.94722z"/><path fill="#d4fcdf" d="M179.55675 446.74418c-3.48793-1.38134-7.86519-4.56813-9.621-5.90214a2.14423 2.14423 0 00-1.77114-.38278l-.49459.11091a2.14778 2.14778 0 00-1.50642 1.24338c-3.39327 7.89873-5.19353 9.272-5.4996 9.45975h-18.245a2.09073 2.09073 0 000 4.18145l43.60047-.12325C190.26885 453.91505 184.02762 448.51479 179.55675 446.74418zM270.79065 446.74418c-3.48273-1.37926-7.85219-4.55851-9.61318-5.89616a2.165 2.165 0 00-1.78882-.38642l-.474.1061a2.171 2.171 0 00-1.52176 1.25651c-3.39041 7.88963-5.18885 9.26147-5.49491 9.44909H233.65271a2.09073 2.09073 0 000 4.18145h18.67974a2.06811 2.06811 0 00.68131-.12325h24.23967C281.50275 453.91505 275.26152 448.51479 270.79065 446.74418z"/><path fill="#f6b98a" d="M173.66965,213.02809l-16.7786,12.73922,4.47309,25.85936,8.94141-13.1908h0a15.27717,15.27717,0,0,1,8.19408-11.75979l.15017-.077Z"/><path fill="#f6b98a" d="M173.66965,213.02809s4.692-3.09851,4.42644-3.187c-.24464-.08154-7.70005-4.06893-.15721-9.74819a5.83056,5.83056,0,0,1,5.75348-.88186c1.89858.81508,3.25219,2.70672-.10748,7.0889l10.97758-8.94142,26.64719,12.83669s-6.59355,6.84393-9.00233,12.752a6.145,6.145,0,0,0-.32,1.0875l-.785,3.81273a2.92355,2.92355,0,0,1-4.3301,1.965,5.30921,5.30921,0,0,1-.87808-.672l-.9486,1.54607a1.38531,1.38531,0,0,1-1.88552.46817l-4.65648-2.75158-2.67155,4.431a1.23578,1.23578,0,0,1-1.93213.23575l-.7424-.7424s-6.24049,3.94737-14.40767-5.72832Z"/><path fill="#020202" d="M216.46,215.39207c-1.6377-4.124-6.41211-4.66211-6.46-4.668l.10937-1.0586c.22266.02246,5.4668.61621,7.34082,5.334Z"/><ellipse cx="210.586" cy="216.835" fill="#020202" rx="2.744" ry="1.239" transform="rotate(-60 210.586 216.835)"/><path fill="#874106" d="M168.65586,216.83483s-25.79426-28.68335,13.68962-56.48141c0,0,29.03746-14.34168,43.91031,14.34167,0,0,23.19456,2.83293,14.16462,24.25691s-44.61855,9.56112-45.858-1.59352c0,0-.35412,6.02-10.97758,8.94142l-5.48879,3.54115Z"/><path fill="#f6b98a" d="M183.69243,199.211a5.61632,5.61632,0,0,0-5.484.68286c-7.98689,5.785-.3599,9.86477-.11234,9.9472l5.48893-3.54123C186.9445,201.91763,185.591,200.02609,183.69243,199.211Z"/><path fill="#ed860a" d="M157.38034,225.15655s-2.30175,13.27932,12.92521,13.27932l24.611,39.48388s-7.25936,12.394-21.424,17.52871l-5.66585-7.9676s-17.35165,21.7781-5.66584,49.045l-60.37669-3.80674S93.99367,278.27386,157.38034,225.15655Z"/><path fill="#4fba75" d="M167.03982,380.25911H70.8778a3.44279,3.44279,0,0,1-3.44279-3.44279V314.31626A3.44279,3.44279,0,0,1,71.5312,310.936l96.162,18.588a3.44279,3.44279,0,0,1,2.7894,3.38022v43.912A3.44279,3.44279,0,0,1,167.03982,380.25911Z"/><polygon fill="#874106" points="256.542 455.686 249.982 455.686 249.982 336.526 268.838 336.526 256.542 455.686"/><path fill="#139da0" d="M414.9063,456.75144H65.97173a1.06543,1.06543,0,1,1,0-2.13086H414.9063a1.06543,1.06543,0,0,1,0,2.13086Z"/><path fill="#161616" d="M331.14555,134.75632a1.0661,1.0661,0,0,1-1.06543-1.06543V24.4907a1.06543,1.06543,0,0,1,2.13086,0V133.69089A1.0661,1.0661,0,0,1,331.14555,134.75632Z"/><circle cx="331.145" cy="179.681" r="11.628" fill="#ed860a"/><path fill="#139da0" d="M331.54911,132.89653h.00008A40.11177,40.11177,0,0,1,371.661,173.00831v6.67316a0,0,0,0,1,0,0H291.43734a0,0,0,0,1,0,0v-6.67316a40.11177,40.11177,0,0,1,40.11177-40.11177Z"/><path fill="#9f9e9f" d="M319.89262,326.73972H240.4395a2.9043,2.9043,0,1,1,0-5.80859h77.42187l21.47852-58.8252a2.90374,2.90374,0,0,1,5.45508,1.99219l-22.17481,60.7334A2.90379,2.90379,0,0,1,319.89262,326.73972Z"/><rect width="22.448" height="29.481" x="344.842" y="296.132" fill="#63cece"/><rect width="74.261" height="1.404" x="240.439" y="319.36" fill="#6d6d6d"/><path fill="#63cece" d="M369.6602,318.47507h-2.37011v-1.55468h2.37011a6.50782,6.50782,0,1,0,0-13.01563h-2.37011v-1.55469h2.37011a8.0625,8.0625,0,0,1,0,16.125Z"/><rect width="26.074" height="2.663" x="343.011" y="293.469" fill="#59c1be"/><path fill="#59c1be" d="M310.86528 191.30912c-2.946 3.448-6.11694 6.66464-9.343 9.82468-3.24829 3.13693-6.55322 6.21582-10.085 9.06137 2.94434-3.4498 6.11548-6.66626 9.343-9.82468C304.03032 197.23518 307.33525 194.1565 310.86528 191.30912zM324.158 197.3585a101.16512 101.16512 0 01-1.79981 10.88138 99.9814 99.9814 0 01-2.84058 10.65716 99.98471 99.98471 0 011.79981-10.88138A101.15825 101.15825 0 01324.158 197.3585zM337.32768 197.3585a89.19185 89.19185 0 014.95264 9.09659A88.22925 88.22925 0 01346.273 216.012a88.18241 88.18241 0 01-4.95264-9.09659A89.24438 89.24438 0 01337.32768 197.3585zM348.69853 191.30912a83.74956 83.74956 0 019.49414 3.2431 82.75952 82.75952 0 019.09717 4.23078 82.73969 82.73969 0 01-9.49414-3.24311A83.72388 83.72388 0 01348.69853 191.30912z"/><line x1="338.005" x2="410.365" y1="15.465" y2="15.465" fill="none" stroke="#afafaf" stroke-miterlimit="10"/><line x1="374.185" x2="374.185" y1="15.465" y2="33.84" fill="none" stroke="#afafaf" stroke-miterlimit="10"/><line x1="331.525" x2="391.285" y1="33.84" y2="33.84" fill="none" stroke="#afafaf" stroke-miterlimit="10"/><line x1="347.365" x2="347.365" y1="33.84" y2="48.96" fill="none" stroke="#afafaf" stroke-miterlimit="10"/><line x1="334.405" x2="385.525" y1="48.96" y2="48.96" fill="none" stroke="#afafaf" stroke-miterlimit="10"/><line x1="347.365" x2="347.365" y1="15.465" fill="none" stroke="#afafaf" stroke-miterlimit="10"/><line x1="389.845" x2="389.845" y1="15.465" fill="none" stroke="#afafaf" stroke-miterlimit="10"/><line x1="391.285" x2="391.285" y1="49.133" y2="33.667" fill="none" stroke="#afafaf" stroke-miterlimit="10"/><line x1="40.355" x2="112.715" y1="164.998" y2="164.998" fill="none" stroke="#afafaf" stroke-miterlimit="10"/><line x1="76.535" x2="76.535" y1="164.998" y2="183.372" fill="none" stroke="#afafaf" stroke-miterlimit="10"/><line x1="33.875" x2="93.635" y1="183.372" y2="183.372" fill="none" stroke="#afafaf" stroke-miterlimit="10"/><line x1="49.715" x2="49.715" y1="183.372" y2="198.492" fill="none" stroke="#afafaf" stroke-miterlimit="10"/><line x1="36.755" x2="87.875" y1="198.492" y2="198.492" fill="none" stroke="#afafaf" stroke-miterlimit="10"/><line x1="49.715" x2="49.715" y1="164.998" y2="149.532" fill="none" stroke="#afafaf" stroke-miterlimit="10"/><line x1="92.195" x2="92.195" y1="164.998" y2="149.532" fill="none" stroke="#afafaf" stroke-miterlimit="10"/><line x1="93.635" x2="93.635" y1="198.665" y2="183.2" fill="none" stroke="#afafaf" stroke-miterlimit="10"/><line x1="374.545" x2="446.905" y1="246.267" y2="246.267" fill="none" stroke="#afafaf" stroke-miterlimit="10"/><line x1="410.725" x2="410.725" y1="246.267" y2="264.641" fill="none" stroke="#afafaf" stroke-miterlimit="10"/><line x1="368.065" x2="427.825" y1="264.641" y2="264.641" fill="none" stroke="#afafaf" stroke-miterlimit="10"/><line x1="383.905" x2="383.905" y1="264.641" y2="279.761" fill="none" stroke="#afafaf" stroke-miterlimit="10"/><line x1="370.945" x2="422.065" y1="279.761" y2="279.761" fill="none" stroke="#afafaf" stroke-miterlimit="10"/><line x1="383.905" x2="383.905" y1="246.267" y2="230.801" fill="none" stroke="#afafaf" stroke-miterlimit="10"/><line x1="426.385" x2="426.385" y1="246.267" y2="230.801" fill="none" stroke="#afafaf" stroke-miterlimit="10"/><line x1="427.825" x2="427.825" y1="279.934" y2="264.469" fill="none" stroke="#afafaf" stroke-miterlimit="10"/></g></g></svg>